<svg width="184" height="19" viewBox="0 0 184 19" fill="none" xmlns="http://www.w3.org/2000/svg">
<path d="M178.16 16.305L172.46 16.1702L161.132 15.9681C156.84 15.9007 152.618 15.8333 148.326 15.766C148.607 15.6986 148.889 15.6312 149.1 15.5638C151.985 14.7553 156.066 12.6667 158.317 15.0922C153.814 10.3085 143.893 19.0674 141.149 13.2731C141.008 14.4858 141.43 15.227 142.134 15.6312C140.867 15.6312 139.671 15.6312 138.405 15.5638C137.912 15.5638 137.42 15.5638 136.927 15.5638C138.686 14.4184 139.953 12.5319 142.275 12.734C144.808 12.9362 148.326 14.6879 151.14 13.2731C149.803 13.7447 147.904 13.0035 146.848 12.1277C146.356 11.7234 145.722 10.9149 144.948 11.0496C144.174 11.117 144.315 11.9929 144.597 12.6667C140.093 11.0496 137.349 14.3511 135.027 15.6312C134.112 15.6312 133.127 15.6312 132.213 15.6312H132.142C131.368 15.6312 130.594 15.6312 129.891 15.6312C130.524 15.1596 131.087 14.5532 131.509 13.7447C131.931 12.8688 133.62 11.0496 134.605 12.4645C133.831 11.9929 131.931 12.6667 131.931 13.7447C131.931 15.1596 133.69 15.0922 134.605 14.8227C135.801 14.4184 136.575 13.1383 137.208 11.9929C137.842 10.9149 138.827 9.2305 138.897 8.01773C137.138 9.90425 134.886 10.2411 132.564 10.7128C131.72 10.9149 130.665 11.0496 130.102 11.8582C129.68 12.4645 129.68 14.2837 130.805 13.6773C130.383 14.4184 129.609 15.0248 128.624 15.4965C128.413 15.5638 128.272 15.6312 128.061 15.6312C127.498 15.6312 126.865 15.6312 126.302 15.6312C126.161 15.5638 126.021 15.5638 125.88 15.4965C125.176 15.227 124.05 13.9468 123.417 14.2837C123.91 14.6879 124.262 15.227 124.754 15.6312C121.728 15.6312 118.633 15.5638 115.607 15.5638H114.481C114.974 14.9574 115.325 14.0816 115.255 13.4078C114.692 14.3511 114.059 15.1596 113.144 15.5638H107.937C106.53 14.8227 107.304 12.2624 108.852 11.656C107.515 11.9255 107.023 12.734 106.389 13.8794C105.967 14.7553 105.404 15.227 104.771 15.4965H100.338C102.59 15.1596 104.138 13.6773 105.967 12.0603C106.249 11.8582 106.53 11.5887 106.811 11.4539C107.023 11.3191 107.515 11.117 108.078 10.9149C110.259 10.3085 114.129 9.90425 113.215 12.6667C113.144 12.734 113.215 12.6667 113.144 12.734C112.37 10.6454 109.485 10.7128 109.274 12.6667C108.993 14.7553 111.948 14.8227 112.933 13.9468C113.355 13.6099 113.637 13.2057 113.848 12.8688C114.622 11.8582 114.34 10.4433 113.144 9.5C112.018 8.62411 110.752 8.48936 109.556 8.75887C113.285 6.73759 116.522 8.08511 119.688 10.7128C119.336 10.5106 118.632 10.1064 117.647 9.70213C116.944 9.29787 116.311 8.96099 114.481 8.82624L117.436 10.1738C116.24 10.3759 115.255 11.9255 116.803 13.2731C119.899 15.9681 122.995 12.4645 126.865 13.6773C124.754 12.0603 124.684 9.70213 122.925 7.88298C122.643 7.5461 122.01 7.00709 121.799 6.87234C120.743 6.26596 119.547 7.14184 119.477 8.28723C119.407 9.02837 119.758 9.56738 120.18 9.97163C117.085 7.14184 113.074 6.33333 110.119 8.08511C110.681 7.2766 111.033 6.67021 111.737 5.99645C111.737 5.99645 113.074 6.40071 114.411 5.65957C116.592 4.37943 116.662 2.08865 117.999 0.0673759C115.888 1.21277 112.792 -0.404255 111.385 1.9539C110.189 3.9078 110.963 6.06383 109.767 8.01773L108.782 9.02837C108.571 9.09574 108.359 9.2305 108.148 9.36525C107.656 9.63475 107.234 9.97163 106.811 10.3759C106.389 10.6454 105.334 10.3085 105.052 9.7695C104.701 9.09575 105.404 9.02837 107.023 8.48936C107.937 8.15248 108.289 8.08511 109.133 5.99645C107.585 6.80496 105.756 5.52482 104.419 7.2766C103.012 9.16312 104.349 10.5106 106.037 10.9823C105.897 11.1844 105.756 11.3191 105.615 11.5213C105.475 11.656 105.334 11.7908 105.123 11.9255C104.489 12.3972 103.715 12.8014 103.082 12.734C102.801 12.734 102.59 12.6667 102.379 12.5993C102.379 12.4645 102.379 12.3972 102.379 12.2624C102.308 11.5887 102.097 11.0496 101.745 10.5106C101.394 10.039 100.971 9.63475 100.549 9.36525C99.6344 8.75887 98.7197 8.35461 97.7346 8.08511C95.7644 7.5461 93.7239 7.41135 91.7537 7.61348C93.7239 7.8156 95.6237 8.21986 97.3828 8.96099C98.2271 9.29787 99.0715 9.7695 99.7048 10.3759C100.057 10.6454 100.338 10.9823 100.549 11.3191C100.619 11.4539 100.69 11.656 100.76 11.7908C100.268 11.656 99.564 11.7234 98.4382 12.1277C99.2122 12.2624 99.7048 12.5319 99.9159 12.9362C99.7751 12.9362 99.5641 13.0035 99.4233 13.0035C98.5086 13.1383 97.4532 13.1383 96.4681 13.3404C95.4126 13.5426 94.3572 13.8794 93.4425 14.4184C92.8795 14.7553 92.3166 15.1596 91.8945 15.6986C91.4019 15.2269 90.9094 14.7553 90.2761 14.4184C89.291 13.8794 88.2356 13.5426 87.1801 13.3404C86.1247 13.1383 85.1396 13.1383 84.2249 13.0035C84.0841 13.0035 83.9434 12.9362 83.8027 12.9362C84.0138 12.5319 84.4359 12.2624 85.2803 12.1277C84.1545 11.656 83.4509 11.656 82.888 11.8582C83.0287 11.3191 83.4509 10.8475 83.9434 10.3759C84.5767 9.7695 85.421 9.36525 86.2654 8.96099C88.0245 8.21986 89.9243 7.8156 91.8945 7.61348C89.9243 7.41135 87.8837 7.5461 85.9136 8.08511C84.9285 8.35461 83.9434 8.75887 83.099 9.36525C82.6769 9.70213 82.2547 10.039 81.9029 10.5106C81.5511 10.9823 81.34 11.5887 81.2696 12.195C81.2696 12.2624 81.2696 12.3972 81.2696 12.5319C81.0585 12.5993 80.9178 12.6667 80.6363 12.6667C80.0031 12.6667 79.2291 12.3298 78.5958 11.8582C78.4551 11.7234 78.3143 11.5887 78.1032 11.4539C77.9625 11.2518 77.7514 11.117 77.6811 10.9149C79.3698 10.4433 80.7771 9.09574 79.2994 7.20922C77.9625 5.45745 76.1331 6.80496 74.5851 5.92908C75.4998 8.01773 75.7813 8.08511 76.696 8.42199C78.3143 8.96099 78.9476 9.09574 78.6662 9.70213C78.3847 10.2411 77.3996 10.6454 76.9071 10.3085C76.4849 9.97163 76.0627 9.63475 75.5702 9.29787C75.3591 9.16312 75.148 9.02837 74.9369 8.96099L73.9518 7.95035C72.7556 5.99645 73.5296 3.84043 72.3335 1.88652C70.8558 -0.471631 67.8302 1.07801 65.7193 0C67.0562 2.02128 67.1266 4.31206 69.3078 5.5922C70.6447 6.33333 71.9816 5.92908 71.9816 5.92908C72.6149 6.60284 72.9667 7.20922 73.6 8.01773C70.7151 6.26596 66.7044 7.07447 63.5381 9.90425C63.9602 9.43262 64.312 8.89362 64.2417 8.21986C64.101 7.07447 62.9751 6.19858 61.9197 6.80497C61.6382 6.93972 61.0753 7.47872 60.7939 7.8156C58.9644 9.63475 58.9644 11.9929 56.8535 13.6099C60.7235 12.3972 63.8195 15.8333 66.9155 13.2057C68.3931 11.9255 67.4784 10.3759 66.2822 10.1064L69.2375 8.75887C67.3377 8.89362 66.7044 9.2305 66.0711 9.63475C65.086 10.039 64.4528 10.3759 64.0306 10.6454C67.1969 8.01773 70.4337 6.60284 74.1629 8.69149C72.9667 8.35461 71.7002 8.55674 70.5744 9.43262C69.3078 10.3759 69.0967 11.7908 69.8708 12.8014C70.0818 13.1383 70.3633 13.4752 70.7855 13.8794C71.8409 14.7553 74.7258 14.6879 74.4444 12.5993C74.1629 10.6454 71.3484 10.5106 70.5744 12.6667C70.504 12.5993 70.5744 12.6667 70.504 12.5993C69.5189 9.83688 73.4593 10.1738 75.6405 10.8475C76.2034 11.0496 76.6256 11.2518 76.9071 11.3865C77.1885 11.5887 77.47 11.7908 77.7514 11.9929C79.5809 13.6099 81.1289 15.1596 83.3805 15.4291H78.9476C78.3143 15.1596 77.8218 14.6879 77.3293 13.8121C76.7663 12.5993 76.2738 11.8582 74.8665 11.5887C76.4145 12.195 77.1182 14.6879 75.7813 15.4965H70.5744C69.6597 15.0922 69.0264 14.2837 68.4635 13.3404C68.3931 14.0142 68.6746 14.8901 69.2375 15.4965H68.1117C65.086 15.4965 61.9901 15.5638 58.9644 15.5638C59.457 15.1596 59.8088 14.6206 60.3013 14.2163C59.6681 13.8794 58.5423 15.0922 57.8386 15.4291C57.6979 15.4965 57.5572 15.5638 57.4164 15.5638C56.8535 15.5638 56.2203 15.5638 55.6574 15.5638C55.5166 15.4965 55.3055 15.4965 55.0945 15.4291C54.1797 14.9574 53.3354 14.3511 52.9132 13.6099C54.039 14.1489 54.039 12.3972 53.6168 11.7908C53.0539 10.9823 52.0688 10.8475 51.1541 10.6454C48.8321 10.1738 46.5805 9.83688 44.8214 7.95035C44.8214 9.16312 45.8769 10.8475 46.5101 11.9255C47.1434 13.0709 47.9174 14.2837 49.1136 14.7553C50.0283 15.0922 51.7874 15.1596 51.7874 13.6773C51.7874 12.5993 49.8876 11.9255 49.1136 12.3972C50.0987 10.9823 51.717 12.8014 52.2096 13.6773C52.6317 14.4858 53.1946 15.1596 53.8279 15.5638C53.0539 15.5638 52.2799 15.5638 51.5763 15.5638H51.5059C50.5912 15.5638 49.6061 15.5638 48.6914 15.5638C46.3694 14.2837 43.6252 10.9823 39.122 12.5993C39.4738 11.9255 39.5442 11.117 38.7702 10.9823C37.9258 10.8475 37.2925 11.656 36.8704 12.0603C35.8149 13.0035 33.9151 13.7447 32.5782 13.2057C35.3927 14.6206 38.9813 12.8688 41.444 12.6667C43.766 12.4645 45.1029 14.3511 46.7916 15.4965C46.299 15.4965 45.8065 15.4965 45.314 15.4965C44.0474 15.4965 42.8512 15.4965 41.5847 15.5638C42.2883 15.0922 42.7105 14.3511 42.5698 13.2057C39.8256 19 29.9044 10.1738 25.4011 15.0248C27.6528 12.5319 31.7338 14.6879 34.6187 15.4965C34.8298 15.5638 35.1113 15.6312 35.3927 15.6986C31.1006 15.766 26.8788 15.8333 22.5866 15.9007L11.3285 16.1702L5.62906 16.305L0 16.4397L5.69943 16.5745L11.3989 16.7092L22.7273 16.9113C30.3266 17.0461 37.8554 17.1135 45.4547 17.2482C53.0539 17.3156 60.5828 17.383 68.182 17.4504L88.6577 17.5177L85.9839 16.3723C85.3507 15.9681 84.647 15.2943 84.2249 14.5532C85.2099 14.6879 86.1247 14.8227 86.969 15.0248C87.8837 15.2269 88.7281 15.4965 89.4317 15.9007C90.1354 16.305 90.6983 16.9113 91.1205 17.6525L91.8945 19L92.7388 17.7199C93.2314 17.0461 93.7943 16.4397 94.4979 15.9681C95.2015 15.4965 96.0459 15.2269 96.9606 15.0248C97.805 14.8227 98.7197 14.6879 99.7751 14.5532C99.353 15.227 98.6493 15.9007 98.0161 16.3723L95.3423 17.5177L115.818 17.4504C123.417 17.383 130.946 17.383 138.545 17.2482C146.145 17.1809 153.673 17.0461 161.273 16.9113L172.601 16.7092L178.301 16.5745L184 16.4397L178.16 16.305Z" fill="url(#paint0_linear_648_893)" fill-opacity="0.8"/>
<defs>
<linearGradient id="paint0_linear_648_893" x1="48.1425" y1="5.07534" x2="153.623" y2="67.6239" gradientUnits="userSpaceOnUse">
<stop stop-color="#A2DA00"/>
<stop offset="1" stop-color="#93C600"/>
</linearGradient>
</defs>
</svg>
