<svg width="801" height="87" viewBox="0 0 801 87" fill="none" xmlns="http://www.w3.org/2000/svg">
<path d="M774.669 74.002L749.9 73.3904L700.667 72.4731C682.014 72.1673 663.666 71.8615 645.013 71.5557C646.236 71.2499 647.459 70.9441 648.376 70.6383C660.914 66.9688 678.65 57.4892 688.435 68.4977C668.865 46.7864 625.748 86.5396 613.822 60.2413C613.21 65.7456 615.045 69.1093 618.103 70.9441C612.599 70.9441 607.4 70.9441 601.896 70.6383C599.755 70.6383 597.615 70.6383 595.474 70.6383C603.119 65.4398 608.623 56.8776 618.714 57.795C629.723 58.7124 645.013 66.663 657.245 60.2413C651.434 62.3819 643.178 59.0181 638.591 55.0428C636.451 53.2081 633.698 49.5385 630.335 50.1501C626.971 50.4559 627.583 54.4312 628.806 57.4892C609.235 50.1501 597.309 65.134 587.218 70.9441C583.242 70.9441 578.961 70.9441 574.986 70.9441H574.68C571.317 70.9441 567.953 70.9441 564.895 70.9441C567.647 68.8035 570.093 66.0514 571.928 62.3819C573.763 58.4066 581.102 50.1501 585.383 56.5718C582.019 54.4312 573.763 57.4892 573.763 62.3819C573.763 68.8035 581.408 68.4977 585.383 67.2746C590.581 65.4398 593.945 59.6297 596.697 54.4312C599.45 49.5385 603.731 41.8937 604.036 36.3894C596.392 44.9516 586.606 46.4806 576.515 48.6212C572.845 49.5385 568.259 50.1501 565.812 53.8197C563.977 56.5718 563.977 64.8282 568.87 62.0761C567.035 65.4398 563.672 68.1919 559.391 70.3325C558.473 70.6383 557.862 70.9441 556.944 70.9441C554.498 70.9441 551.746 70.9441 549.299 70.9441C548.688 70.6383 548.076 70.6383 547.465 70.3325C544.407 69.1093 539.514 63.2993 536.762 64.8282C538.902 66.663 540.431 69.1093 542.572 70.9441C529.423 70.9441 515.968 70.6383 502.819 70.6383H497.926C500.067 67.8862 501.596 63.9108 501.29 60.8529C498.843 65.134 496.091 68.8035 492.116 70.6383H469.487C463.371 67.2746 466.735 55.6544 473.463 52.9023C467.653 54.1255 465.512 57.795 462.76 62.9935C460.925 66.9688 458.479 69.1093 455.727 70.3325H436.462C446.247 68.8035 452.974 62.0761 460.925 54.737C462.148 53.8197 463.371 52.5965 464.595 51.9849C465.512 51.3733 467.652 50.4559 470.099 49.5386C479.578 46.7864 496.397 44.9516 492.422 57.4892C492.116 57.795 492.422 57.4892 492.116 57.795C488.752 48.3154 476.215 48.6212 475.297 57.4892C474.074 66.9688 486.917 67.2746 491.199 63.2993C493.033 61.7703 494.257 59.9355 495.174 58.4066C498.538 53.8197 497.315 47.398 492.116 43.1169C487.223 39.1416 481.719 38.53 476.521 39.7532C492.728 30.5794 506.794 36.6952 520.555 48.6212C519.026 47.7038 515.968 45.869 511.687 44.0343C508.629 42.1995 505.877 40.6705 497.926 40.059L510.769 46.1748C505.571 47.0922 501.29 54.1255 508.017 60.2413C521.472 72.4731 534.927 56.5718 551.746 62.0761C542.572 54.737 542.266 44.0343 534.621 35.7778C533.398 34.2489 530.646 31.8025 529.729 31.1909C525.142 28.4388 519.943 32.4141 519.637 37.6126C519.332 40.9763 520.861 43.4227 522.695 45.2574C509.24 32.4141 491.81 28.7446 478.967 36.6952C481.413 33.0257 482.942 30.2736 486 27.2156C486 27.2156 491.81 29.0504 497.62 25.6867C507.1 19.8766 507.406 9.4796 513.216 0.305794C504.042 5.50428 490.587 -1.83476 484.471 8.86801C479.273 17.736 482.636 27.5214 477.438 36.3894L473.157 40.9763C472.239 41.2821 471.322 41.8937 470.405 42.5053C468.264 43.7285 466.429 45.2574 464.595 47.0922C462.76 48.3154 458.173 46.7864 456.95 44.3401C455.421 41.2821 458.479 40.9763 465.512 38.53C469.487 37.001 471.016 36.6952 474.686 27.2156C467.958 30.8851 460.008 25.0751 454.198 33.0257C448.082 41.5879 453.892 47.7038 461.231 49.8443C460.619 50.7617 460.008 51.3733 459.396 52.2907C458.785 52.9023 458.173 53.5139 457.256 54.1255C454.503 56.266 451.14 58.1008 448.388 57.795C447.164 57.795 446.247 57.4892 445.33 57.1834C445.33 56.5718 445.33 56.266 445.33 55.6544C445.024 52.5965 444.106 50.1501 442.577 47.7038C441.048 45.5632 439.214 43.7285 437.379 42.5053C433.404 39.7532 429.428 37.9184 425.147 36.6952C416.585 34.2489 407.717 33.6373 399.155 34.5547C407.717 35.472 415.973 37.3068 423.618 40.6705C427.288 42.1995 430.957 44.3401 433.709 47.0922C435.238 48.3154 436.462 49.8443 437.379 51.3733C437.685 51.9849 437.991 52.9023 438.296 53.5139C436.156 52.9023 433.098 53.2081 428.205 55.0428C431.569 55.6544 433.709 56.8776 434.627 58.7124C434.015 58.7124 433.098 59.0181 432.486 59.0181C428.511 59.6297 423.924 59.6297 419.643 60.5471C415.056 61.4645 410.469 62.9935 406.494 65.4398C404.047 66.9688 401.601 68.8035 399.766 71.2499C397.626 69.1093 395.485 66.9688 392.733 65.4398C388.452 62.9935 383.865 61.4645 379.278 60.5471C374.691 59.6297 370.41 59.6297 366.435 59.0181C365.823 59.0181 365.212 58.7124 364.6 58.7124C365.517 56.8776 367.352 55.6544 371.022 55.0428C366.129 52.9023 363.071 52.9023 360.625 53.8197C361.236 51.3733 363.071 49.2328 365.212 47.0922C367.964 44.3401 371.633 42.5053 375.303 40.6705C382.948 37.3068 391.204 35.472 399.766 34.5547C391.204 33.6373 382.336 34.2489 373.774 36.6952C369.493 37.9184 365.212 39.7532 361.542 42.5053C359.707 44.0343 357.873 45.5632 356.344 47.7038C354.815 49.8443 353.897 52.5965 353.592 55.3486C353.592 55.6544 353.592 56.266 353.592 56.8776C352.674 57.1834 352.063 57.4892 350.839 57.4892C348.087 57.4892 344.724 55.9602 341.971 53.8197C341.36 53.2081 340.748 52.5965 339.831 51.9849C339.219 51.0675 338.302 50.4559 337.996 49.5386C345.335 47.398 351.451 41.2821 345.029 32.7199C339.219 24.7693 331.269 30.8851 324.541 26.9098C328.516 36.3894 329.74 36.6952 333.715 38.2242C340.748 40.6705 343.5 41.2821 342.277 44.0343C341.054 46.4806 336.773 48.3154 334.632 46.7864C332.798 45.2574 330.963 43.7285 328.822 42.1995C327.905 41.5879 326.988 40.9763 326.07 40.6705L321.789 36.0836C316.591 27.2156 319.954 17.4302 314.756 8.56222C308.334 -2.14055 295.185 4.8927 286.011 0C291.821 9.17381 292.127 19.5708 301.607 25.3809C307.417 28.7446 313.227 26.9098 313.227 26.9098C315.979 29.9678 317.508 32.7199 320.26 36.3894C307.723 28.4388 290.292 32.1083 276.532 44.9516C278.366 42.8111 279.895 40.3647 279.59 37.3068C278.978 32.1083 274.085 28.133 269.498 30.8851C268.275 31.4967 265.829 33.9431 264.606 35.472C256.655 43.7285 256.655 54.4312 247.481 61.7703C264.3 56.266 277.755 71.8615 291.21 59.9355C297.631 54.1255 293.656 47.0922 288.457 45.869L301.301 39.7532C293.044 40.3647 290.292 41.8937 287.54 43.7285C283.259 45.5632 280.507 47.0922 278.672 48.3154C292.433 36.3894 306.499 29.9678 322.706 39.4474C317.508 37.9184 312.004 38.8358 307.111 42.8111C301.607 47.0922 300.689 53.5139 304.053 58.1008C304.97 59.6297 306.194 61.1587 308.028 62.9935C312.615 66.9688 325.153 66.663 323.93 57.1834C322.706 48.3154 310.475 47.7038 307.111 57.4892C306.805 57.1834 307.111 57.4892 306.805 57.1834C302.524 44.6459 319.648 46.1748 329.128 49.2328C331.574 50.1501 333.409 51.0675 334.632 51.6791C335.856 52.5965 337.079 53.5139 338.302 54.4312C346.253 61.7703 352.98 68.8035 362.765 70.0267H343.5C340.748 68.8035 338.608 66.663 336.467 62.6877C334.021 57.1834 331.88 53.8197 325.764 52.5965C332.492 55.3486 335.55 66.663 329.74 70.3325H307.111C303.136 68.4977 300.383 64.8282 297.937 60.5471C297.631 63.605 298.854 67.5804 301.301 70.3325H296.408C283.259 70.3325 269.804 70.6383 256.655 70.6383C258.796 68.8035 260.324 66.3572 262.465 64.5224C259.713 62.9935 254.82 68.4977 251.762 70.0267C251.151 70.3325 250.539 70.6383 249.928 70.6383C247.481 70.6383 244.729 70.6383 242.283 70.6383C241.671 70.3325 240.754 70.3325 239.836 70.0267C235.861 67.8862 232.191 65.134 230.357 61.7703C235.249 64.2166 235.249 56.266 233.415 53.5139C230.968 49.8443 226.687 49.2328 222.712 48.3154C212.621 46.1748 202.835 44.6459 195.191 36.0836C195.191 41.5879 199.777 49.2328 202.53 54.1255C205.282 59.3239 208.645 64.8282 213.844 66.9688C217.819 68.4977 225.464 68.8035 225.464 62.0761C225.464 57.1834 217.208 54.1255 213.844 56.266C218.125 49.8443 225.158 58.1008 227.299 62.0761C229.134 65.7456 231.58 68.8035 234.332 70.6383C230.968 70.6383 227.605 70.6383 224.547 70.6383H224.241C220.266 70.6383 215.984 70.6383 212.009 70.6383C201.918 64.8282 189.992 49.8443 170.421 57.1834C171.95 54.1255 172.256 50.4559 168.892 49.8443C165.223 49.2328 162.471 52.9023 160.636 54.737C156.049 59.0181 147.792 62.3819 141.982 59.9355C154.214 66.3572 169.81 58.4066 180.512 57.4892C190.604 56.5718 196.414 65.134 203.753 70.3325C201.612 70.3325 199.472 70.3325 197.331 70.3325C191.827 70.3325 186.628 70.3325 181.124 70.6383C184.182 68.4977 186.017 65.134 185.405 59.9355C173.479 86.2338 130.362 46.1748 110.791 68.1919C120.577 56.8776 138.313 66.663 150.85 70.3325C151.768 70.6383 152.991 70.9441 154.214 71.2499C135.561 71.5557 117.213 71.8615 98.5597 72.1673L49.6328 73.3904L24.8635 74.002L0.400024 74.6136L25.1693 75.2252L49.9386 75.8368L99.1713 76.7542C132.197 77.3658 164.917 77.6716 197.943 78.2831C230.968 78.5889 263.688 78.8947 296.714 79.2005L385.7 79.5063L374.08 74.3078C371.328 72.4731 368.27 69.4151 366.435 66.0514C370.716 66.663 374.691 67.2746 378.361 68.1919C382.336 69.1093 386.006 70.3325 389.064 72.1673C392.121 74.002 394.568 76.7542 396.403 80.1179L399.766 86.2338L403.436 80.4237C405.576 77.3658 408.023 74.6136 411.081 72.4731C414.139 70.3325 417.808 69.1093 421.783 68.1919C425.453 67.2746 429.428 66.663 434.015 66.0514C432.18 69.1093 429.123 72.1673 426.37 74.3078L414.75 79.5063L503.736 79.2005C536.762 78.8947 569.482 78.8947 602.507 78.2831C635.533 77.9773 668.253 77.3658 701.279 76.7542L750.511 75.8368L775.281 75.2252L800.05 74.6136L774.669 74.002Z" fill="url(#paint0_linear_107_3)" fill-opacity="0.8"/>
<defs>
<linearGradient id="paint0_linear_107_3" x1="209.624" y1="23.035" x2="678.166" y2="289.078" gradientUnits="userSpaceOnUse">
<stop stop-color="#A2DA00"/>
<stop offset="1" stop-color="#93C600"/>
</linearGradient>
</defs>
</svg>
