<svg width="20" height="14" viewBox="0 0 20 14" fill="none" xmlns="http://www.w3.org/2000/svg">
<path id="Vector" d="M3.29988 8.86097H4.2408L4.72171 7.48095H6.89627L7.39809 8.86097H8.3181L6.2899 3.46638H5.32808L3.29988 8.86097ZM4.99353 6.70731L5.78808 4.47002H5.8299L6.62445 6.70731H4.99353ZM11.6636 5.24366V3.82184C12.1236 3.62668 12.5942 3.48032 13.0754 3.38274C13.5566 3.28517 14.0617 3.23638 14.5909 3.23638C14.9533 3.23638 15.3088 3.26426 15.6572 3.32001C16.0057 3.37577 16.3473 3.44547 16.6818 3.52911V4.8673C16.3473 4.74184 16.0091 4.64789 15.6673 4.58544C15.3255 4.52299 14.9667 4.49149 14.5909 4.49093C14.0612 4.49093 13.5524 4.55728 13.0645 4.68999C12.5766 4.82269 12.1096 5.00725 11.6636 5.24366ZM11.6636 9.8437V8.42187C12.1236 8.22672 12.5942 8.08035 13.0754 7.98278C13.5566 7.8852 14.0617 7.83641 14.5909 7.83641C14.9533 7.83641 15.3088 7.86429 15.6572 7.92005C16.0057 7.97581 16.3473 8.0455 16.6818 8.12914V9.46733C16.3473 9.34188 16.0091 9.24793 15.6673 9.18548C15.3255 9.12303 14.9667 9.09152 14.5909 9.09097C14.0612 9.09097 13.5524 9.1537 13.0645 9.27915C12.5766 9.40461 12.1096 9.59279 11.6636 9.8437ZM11.6636 7.54368V6.12185C12.1236 5.9267 12.5942 5.78034 13.0754 5.68276C13.5566 5.58518 14.0617 5.53639 14.5909 5.53639C14.9533 5.53639 15.3088 5.56427 15.6572 5.62003C16.0057 5.67579 16.3473 5.74549 16.6818 5.82912V7.16732C16.3473 7.04186 16.0091 6.94791 15.6673 6.88546C15.3255 6.82301 14.9667 6.79151 14.5909 6.79095C14.0612 6.79095 13.5524 6.8573 13.0645 6.99001C12.5766 7.12271 12.1096 7.30727 11.6636 7.54368ZM10.8272 11.2237C11.4405 10.931 12.0572 10.7116 12.6773 10.5655C13.2973 10.4194 13.9352 10.3461 14.5909 10.3455C15.0927 10.3455 15.5842 10.3873 16.0654 10.471C16.5466 10.5546 17.0308 10.6801 17.5182 10.8473V2.56728C17.0582 2.37213 16.5806 2.22576 16.0855 2.12819C15.5903 2.03061 15.0921 1.98182 14.5909 1.98182C13.9357 1.98182 13.2875 2.06546 12.6463 2.23273C12.0051 2.40001 11.3987 2.65092 10.8272 2.98547V11.2237ZM9.99084 13.691C9.32174 13.1613 8.59689 12.7501 7.81628 12.4574C7.03567 12.1646 6.22718 12.0183 5.39081 12.0183C4.80535 12.0183 4.2302 12.0949 3.66537 12.2483C3.10055 12.4016 2.56053 12.6177 2.04533 12.8965C1.7526 13.0498 1.47046 13.0428 1.19892 12.8755C0.927379 12.7083 0.791329 12.4643 0.790771 12.1437V2.06546C0.790771 1.91212 0.829245 1.76576 0.906191 1.62636C0.983137 1.48697 1.098 1.38242 1.25077 1.31273C1.89199 0.978178 2.56109 0.727267 3.25806 0.559993C3.95504 0.392719 4.66595 0.309082 5.39081 0.309082C6.1993 0.309082 6.9905 0.413628 7.76442 0.622721C8.53835 0.831813 9.28048 1.14545 9.99084 1.56364C10.7018 1.14545 11.4442 0.831813 12.2181 0.622721C12.992 0.413628 13.7829 0.309082 14.5909 0.309082C15.3157 0.309082 16.0266 0.392719 16.7236 0.559993C17.4206 0.727267 18.0897 0.978178 18.7309 1.31273C18.8842 1.38242 18.9994 1.48697 19.0763 1.62636C19.1533 1.76576 19.1915 1.91212 19.1909 2.06546V12.1437C19.1909 12.4643 19.0551 12.7083 18.7836 12.8755C18.5121 13.0428 18.2296 13.0498 17.9364 12.8965C17.4206 12.6177 16.8806 12.4016 16.3163 12.2483C15.752 12.0949 15.1769 12.0183 14.5909 12.0183C13.7545 12.0183 12.946 12.1646 12.1654 12.4574C11.3848 12.7501 10.6599 13.1613 9.99084 13.691Z" fill="#CBCBCB"/>
</svg>
