<svg width="713" height="78" viewBox="0 0 713 78" fill="none" xmlns="http://www.w3.org/2000/svg">
<path d="M690.19 66.7778L668.113 66.2327L624.233 65.4151C607.608 65.1426 591.255 64.87 574.63 64.5975C575.72 64.3249 576.81 64.0524 577.628 63.7798C588.802 60.5093 604.61 52.0604 613.332 61.872C595.889 42.5213 557.46 77.9522 546.831 54.5133C546.285 59.4191 547.921 62.4171 550.646 64.0524C545.74 64.0524 541.107 64.0524 536.201 63.7798C534.293 63.7798 532.386 63.7798 530.478 63.7798C537.291 59.1466 542.197 51.5153 551.191 52.3329C561.003 53.1506 574.63 60.2367 585.532 54.5133C580.354 56.4211 572.995 53.4231 568.907 49.88C566.999 48.2447 564.546 44.9742 561.548 45.5193C558.55 45.7918 559.095 49.3349 560.185 52.0604C542.742 45.5193 532.113 58.874 523.119 64.0524C519.576 64.0524 515.76 64.0524 512.217 64.0524H511.945C508.947 64.0524 505.949 64.0524 503.223 64.0524C505.676 62.1446 507.856 59.6917 509.492 56.4211C511.127 52.878 517.668 45.5193 521.484 51.2427C518.486 49.3349 511.127 52.0604 511.127 56.4211C511.127 62.1446 517.941 61.872 521.484 60.7818C526.117 59.1466 529.115 53.9682 531.568 49.3349C534.021 44.9742 537.836 38.1605 538.109 33.2547C531.295 40.886 522.574 42.2487 513.58 44.1565C510.309 44.9742 506.221 45.5193 504.041 48.7898C502.406 51.2427 502.406 58.6015 506.766 56.1486C505.131 59.1466 502.133 61.5995 498.317 63.5073C497.5 63.7798 496.955 64.0524 496.137 64.0524C493.957 64.0524 491.504 64.0524 489.323 64.0524C488.778 63.7798 488.233 63.7798 487.688 63.5073C484.963 62.4171 480.602 57.2387 478.149 58.6015C480.057 60.2367 481.419 62.4171 483.327 64.0524C471.608 64.0524 459.616 63.7798 447.896 63.7798H443.536C445.443 61.3269 446.806 57.7838 446.534 55.0584C444.353 58.874 441.9 62.1446 438.357 63.7798H418.189C412.738 60.7818 415.736 50.4251 421.732 47.9722C416.554 49.0624 414.646 52.3329 412.193 56.9662C410.558 60.5093 408.377 62.4171 405.924 63.5073H388.754C397.475 62.1446 403.471 56.1486 410.558 49.6075C411.648 48.7898 412.738 47.6996 413.828 47.1545C414.646 46.6095 416.554 45.7918 418.734 44.9742C427.183 42.5213 442.173 40.886 438.63 52.0604C438.357 52.3329 438.63 52.0604 438.357 52.3329C435.359 43.884 424.185 44.1565 423.367 52.0604C422.277 60.5093 433.724 60.7818 437.54 57.2387C439.175 55.876 440.265 54.2407 441.083 52.878C444.081 48.7898 442.991 43.0664 438.357 39.2507C433.997 35.7076 429.091 35.1625 424.457 36.2527C438.902 28.0763 451.439 33.5273 463.704 44.1565C462.341 43.3389 459.616 41.7036 455.8 40.0684C453.075 38.4331 450.622 37.0704 443.536 36.5253L454.983 41.9762C450.349 42.7938 446.534 49.0624 452.53 54.5133C464.522 65.4151 476.514 51.2427 491.504 56.1486C483.327 49.6075 483.055 40.0684 476.241 32.7096C475.151 31.3469 472.698 29.1665 471.88 28.6214C467.792 26.1685 463.159 29.7116 462.886 34.3449C462.614 37.3429 463.977 39.5233 465.612 41.1585C453.62 29.7116 438.085 26.4411 426.638 33.5273C428.818 30.2567 430.181 27.8038 432.906 25.0783C432.906 25.0783 438.085 26.7136 443.263 23.7156C451.712 18.5372 451.985 9.27069 457.163 1.09432C448.987 5.7276 436.995 -0.813497 431.544 8.7256C426.91 16.6294 429.908 25.3509 425.275 33.2547L421.459 37.3429C420.642 37.6154 419.824 38.1605 419.007 38.7056C417.099 39.7958 415.463 41.1585 413.828 42.7938C412.193 43.884 408.105 42.5213 407.015 40.3409C405.652 37.6154 408.377 37.3429 414.646 35.1625C418.189 33.7998 419.552 33.5273 422.822 25.0783C416.826 28.3489 409.74 23.1705 404.562 30.2567C399.111 37.888 404.289 43.3389 410.83 45.2467C410.285 46.0644 409.74 46.6095 409.195 47.4271C408.65 47.9722 408.105 48.5173 407.287 49.0624C404.834 50.9702 401.836 52.6055 399.383 52.3329C398.293 52.3329 397.475 52.0604 396.658 51.7878C396.658 51.2427 396.658 50.9702 396.658 50.4251C396.385 47.6996 395.568 45.5193 394.205 43.3389C392.842 41.4311 391.207 39.7958 389.572 38.7056C386.028 36.2527 382.485 34.6174 378.67 33.5273C371.038 31.3469 363.135 30.8018 355.503 31.6194C363.135 32.4371 370.493 34.0724 377.307 37.0704C380.578 38.4331 383.848 40.3409 386.301 42.7938C387.664 43.884 388.754 45.2467 389.572 46.6095C389.844 47.1545 390.117 47.9722 390.389 48.5173C388.481 47.9722 385.756 48.2447 381.395 49.88C384.393 50.4251 386.301 51.5153 387.119 53.1506C386.574 53.1506 385.756 53.4231 385.211 53.4231C381.668 53.9682 377.58 53.9682 373.764 54.7858C369.676 55.6035 365.588 56.9662 362.044 59.1466C359.864 60.5093 357.684 62.1446 356.048 64.3249C354.141 62.4171 352.233 60.5093 349.78 59.1466C345.964 56.9662 341.876 55.6035 337.788 54.7858C333.7 53.9682 329.884 53.9682 326.341 53.4231C325.796 53.4231 325.251 53.1506 324.706 53.1506C325.523 51.5153 327.159 50.4251 330.429 49.88C326.068 47.9722 323.343 47.9722 321.163 48.7898C321.708 46.6095 323.343 44.7016 325.251 42.7938C327.704 40.3409 330.974 38.7056 334.245 37.0704C341.058 34.0724 348.417 32.4371 356.048 31.6194C348.417 30.8018 340.513 31.3469 332.882 33.5273C329.066 34.6174 325.251 36.2527 321.98 38.7056C320.345 40.0684 318.71 41.4311 317.347 43.3389C315.984 45.2467 315.167 47.6996 314.894 50.1526C314.894 50.4251 314.894 50.9702 314.894 51.5153C314.076 51.7878 313.531 52.0604 312.441 52.0604C309.988 52.0604 306.99 50.6976 304.537 48.7898C303.992 48.2447 303.447 47.6996 302.63 47.1545C302.084 46.3369 301.267 45.7918 300.994 44.9742C307.535 43.0664 312.986 37.6154 307.263 29.9842C302.084 22.898 294.998 28.3489 289.002 24.8058C292.545 33.2547 293.635 33.5273 297.179 34.89C303.447 37.0704 305.9 37.6154 304.81 40.0684C303.72 42.2487 299.904 43.884 297.996 42.5213C296.361 41.1585 294.726 39.7958 292.818 38.4331C292 37.888 291.183 37.3429 290.365 37.0704L286.549 32.9822C281.916 25.0783 284.914 16.3569 280.281 8.45306C274.557 -1.08604 262.838 5.18251 254.661 0.821777C259.84 8.99815 260.112 18.2647 268.561 23.4431C273.74 26.4411 278.918 24.8058 278.918 24.8058C281.371 27.5313 282.734 29.9842 285.187 33.2547C274.012 26.1685 258.477 29.4391 246.213 40.886C247.848 38.9782 249.211 36.7978 248.938 34.0724C248.393 29.4391 244.032 25.896 239.944 28.3489C238.854 28.894 236.673 31.0744 235.583 32.4371C228.497 39.7958 228.497 49.3349 220.321 55.876C235.311 50.9702 247.303 64.87 259.295 54.2407C265.018 49.0624 261.475 42.7938 256.842 41.7036L268.289 36.2527C260.93 36.7978 258.477 38.1605 256.024 39.7958C252.209 41.4311 249.756 42.7938 248.12 43.884C260.385 33.2547 272.922 27.5313 287.367 35.9802C282.734 34.6174 277.828 35.4351 273.467 38.9782C268.561 42.7938 267.744 48.5173 270.742 52.6055C271.559 53.9682 272.649 55.3309 274.285 56.9662C278.373 60.5093 289.547 60.2367 288.457 51.7878C287.367 43.884 276.465 43.3389 273.467 52.0604C273.195 51.7878 273.467 52.0604 273.195 51.7878C269.379 40.6135 284.641 41.9762 293.09 44.7016C295.271 45.5193 296.906 46.3369 297.996 46.882C299.086 47.6996 300.177 48.5173 301.267 49.3349C308.353 55.876 314.349 62.1446 323.07 63.2347H305.9C303.447 62.1446 301.539 60.2367 299.632 56.6936C297.451 51.7878 295.543 48.7898 290.092 47.6996C296.088 50.1526 298.814 60.2367 293.635 63.5073H273.467C269.924 61.872 267.471 58.6015 265.291 54.7858C265.018 57.5113 266.108 61.0544 268.289 63.5073H263.928C252.209 63.5073 240.217 63.7798 228.497 63.7798C230.405 62.1446 231.768 59.9642 233.675 58.3289C231.223 56.9662 226.862 61.872 224.136 63.2347C223.591 63.5073 223.046 63.7798 222.501 63.7798C220.321 63.7798 217.868 63.7798 215.687 63.7798C215.142 63.5073 214.325 63.5073 213.507 63.2347C209.964 61.3269 206.693 58.874 205.058 55.876C209.419 58.0564 209.419 50.9702 207.784 48.5173C205.603 45.2467 201.788 44.7016 198.244 43.884C189.25 41.9762 180.529 40.6135 173.715 32.9822C173.715 37.888 177.804 44.7016 180.256 49.0624C182.709 53.6956 185.707 58.6015 190.341 60.5093C193.884 61.872 200.697 62.1446 200.697 56.1486C200.697 51.7878 193.339 49.0624 190.341 50.9702C194.156 45.2467 200.425 52.6055 202.333 56.1486C203.968 59.4191 206.148 62.1446 208.601 63.7798C205.603 63.7798 202.605 63.7798 199.88 63.7798H199.607C196.064 63.7798 192.248 63.7798 188.705 63.7798C179.711 58.6015 169.082 45.2467 151.639 51.7878C153.002 49.0624 153.274 45.7918 150.276 45.2467C147.006 44.7016 144.553 47.9722 142.918 49.6075C138.83 53.4231 131.471 56.4211 126.292 54.2407C137.194 59.9642 151.094 52.878 160.633 52.0604C169.627 51.2427 174.806 58.874 181.347 63.5073C179.439 63.5073 177.531 63.5073 175.623 63.5073C170.717 63.5073 166.084 63.5073 161.178 63.7798C163.904 61.872 165.539 58.874 164.994 54.2407C154.365 77.6797 115.936 41.9762 98.4928 61.5995C107.214 51.5153 123.022 60.2367 134.196 63.5073C135.014 63.7798 136.104 64.0524 137.194 64.3249C120.569 64.5975 104.216 64.87 87.5909 65.1426L43.9836 66.2327L21.9074 66.7778L0.10376 67.3229L22.18 67.868L44.2562 68.4131L88.136 69.2308C117.571 69.7758 146.733 70.0484 176.168 70.5935C205.603 70.866 234.766 71.1386 264.201 71.4111L343.511 71.6837L333.155 67.0504C330.702 65.4151 327.976 62.6897 326.341 59.6917C330.157 60.2367 333.7 60.7818 336.97 61.5995C340.513 62.4171 343.784 63.5073 346.509 65.1426C349.235 66.7778 351.415 69.2308 353.05 72.2288L356.048 77.6797L359.319 72.5013C361.227 69.7758 363.407 67.3229 366.133 65.4151C368.858 63.5073 372.129 62.4171 375.672 61.5995C378.942 60.7818 382.485 60.2367 386.574 59.6917C384.938 62.4171 382.213 65.1426 379.76 67.0504L369.403 71.6837L448.714 71.4111C478.149 71.1386 507.311 71.1386 536.746 70.5935C566.181 70.3209 595.344 69.7758 624.779 69.2308L668.658 68.4131L690.735 67.868L712.811 67.3229L690.19 66.7778Z" fill="url(#paint0_linear_92_570)" fill-opacity="0.8"/>
<defs>
<linearGradient id="paint0_linear_92_570" x1="186.579" y1="21.3523" x2="604.179" y2="258.469" gradientUnits="userSpaceOnUse">
<stop stop-color="#A2DA00"/>
<stop offset="1" stop-color="#93C600"/>
</linearGradient>
</defs>
</svg>
