<svg width="793" height="86" viewBox="0 0 793 86" fill="none" xmlns="http://www.w3.org/2000/svg">
<path d="M767.479 73.5104L742.95 72.9048L694.195 71.9963C675.722 71.6935 657.553 71.3906 639.08 71.0878C640.292 70.785 641.503 70.4822 642.411 70.1793C654.827 66.5454 672.391 57.1578 682.082 68.0595C662.701 46.5589 620.002 85.9263 608.192 59.8832C607.587 65.3341 609.404 68.6652 612.432 70.4822C606.981 70.4822 601.833 70.4822 596.382 70.1793C594.262 70.1793 592.142 70.1793 590.023 70.1793C597.593 65.0313 603.044 56.5522 613.037 57.4606C623.939 58.3691 639.08 66.2426 651.193 59.8832C645.44 62.003 637.263 58.6719 632.721 54.7352C630.601 52.9183 627.876 49.2843 624.545 49.89C621.214 50.1928 621.819 54.1296 623.031 57.1578C603.65 49.89 591.84 64.7285 581.846 70.4822C577.91 70.4822 573.67 70.4822 569.733 70.4822H569.43C566.099 70.4822 562.768 70.4822 559.74 70.4822C562.466 68.3624 564.888 65.6369 566.705 62.003C568.522 58.0663 575.79 49.89 580.029 56.2493C576.698 54.1296 568.522 57.1578 568.522 62.003C568.522 68.3624 576.093 68.0595 580.029 66.8482C585.177 65.0313 588.509 59.2776 591.234 54.1296C593.959 49.2843 598.199 41.7137 598.502 36.2628C590.931 44.742 581.241 46.2561 571.247 48.3759C567.614 49.2843 563.071 49.89 560.649 53.5239C558.832 56.2493 558.832 64.4256 563.677 61.7002C561.86 65.0313 558.529 67.7567 554.289 69.8765C553.381 70.1793 552.775 70.4822 551.867 70.4822C549.444 70.4822 546.719 70.4822 544.296 70.4822C543.69 70.1793 543.085 70.1793 542.479 69.8765C539.451 68.6652 534.606 62.9115 531.88 64.4256C534 66.2426 535.514 68.6652 537.634 70.4822C524.612 70.4822 511.288 70.1793 498.266 70.1793H493.421C495.541 67.4539 497.055 63.5172 496.752 60.4889C494.33 64.7285 491.604 68.3624 487.668 70.1793H465.258C459.202 66.8482 462.533 55.3409 469.195 52.6154C463.441 53.8267 461.322 57.4606 458.596 62.6087C456.779 66.5454 454.357 68.6652 451.631 69.8765H432.553C442.244 68.3624 448.906 61.7002 456.779 54.4324C457.991 53.5239 459.202 52.3126 460.413 51.707C461.322 51.1013 463.441 50.1928 465.864 49.2843C475.252 46.5589 491.907 44.742 487.97 57.1578C487.668 57.4606 487.97 57.1578 487.668 57.4606C484.336 48.073 471.921 48.3759 471.012 57.1578C469.801 66.5454 482.52 66.8482 486.759 62.9115C488.576 61.3974 489.787 59.5804 490.696 58.0663C494.027 53.5239 492.816 47.1646 487.668 42.925C482.822 38.9883 477.371 38.3826 472.223 39.5939C488.273 30.5091 502.203 36.5657 515.83 48.3759C514.316 47.4674 511.288 45.6504 507.048 43.8335C504.02 42.0165 501.295 40.5024 493.421 39.8967L506.14 45.9533C500.992 46.8617 496.752 53.8267 503.414 59.8832C516.739 71.9963 530.063 56.2493 546.719 61.7002C537.634 54.4324 537.331 43.8335 529.76 35.6572C528.549 34.1431 525.824 31.7204 524.915 31.1148C520.373 28.3894 515.225 32.3261 514.922 37.4741C514.619 40.8052 516.133 43.2278 517.95 45.0448C504.626 32.3261 487.365 28.6922 474.646 36.5657C477.069 32.9318 478.583 30.2063 481.611 27.1781C481.611 27.1781 487.365 28.995 493.118 25.6639C502.506 19.9102 502.809 9.61416 508.562 0.529388C499.478 5.67743 486.153 -1.59039 480.097 9.00851C474.949 17.7905 478.28 27.4809 473.132 36.2628L468.892 40.8052C467.984 41.108 467.075 41.7137 466.167 42.3193C464.047 43.5307 462.23 45.0448 460.413 46.8617C458.596 48.073 454.054 46.5589 452.843 44.1363C451.328 41.108 454.357 40.8052 461.322 38.3826C465.258 36.8685 466.773 36.5657 470.406 27.1781C463.744 30.812 455.871 25.0583 450.117 32.9318C444.061 41.4109 449.814 47.4674 457.082 49.5872C456.476 50.4956 455.871 51.1013 455.265 52.0098C454.66 52.6154 454.054 53.2211 453.145 53.8267C450.42 55.9465 447.089 57.7635 444.363 57.4606C443.152 57.4606 442.244 57.1578 441.335 56.855C441.335 56.2493 441.335 55.9465 441.335 55.3409C441.032 52.3126 440.124 49.89 438.61 47.4674C437.096 45.3476 435.279 43.5307 433.462 42.3193C429.525 39.5939 425.588 37.777 421.349 36.5657C412.87 34.1431 404.088 33.5374 395.608 34.4459C404.088 35.3544 412.264 37.1713 419.835 40.5024C423.468 42.0165 427.102 44.1363 429.828 46.8617C431.342 48.073 432.553 49.5872 433.462 51.1013C433.765 51.7069 434.067 52.6154 434.37 53.2211C432.25 52.6154 429.222 52.9183 424.377 54.7352C427.708 55.3409 429.828 56.5522 430.736 58.3691C430.131 58.3691 429.222 58.6719 428.617 58.6719C424.68 59.2776 420.137 59.2776 415.898 60.1861C411.355 61.0945 406.813 62.6087 402.876 65.0313C400.454 66.5454 398.031 68.3624 396.214 70.785C394.094 68.6652 391.975 66.5454 389.249 65.0313C385.01 62.6087 380.467 61.0945 375.925 60.1861C371.382 59.2776 367.143 59.2776 363.206 58.6719C362.6 58.6719 361.995 58.3691 361.389 58.3691C362.298 56.5522 364.115 55.3409 367.749 54.7352C362.903 52.6154 359.875 52.6154 357.452 53.5239C358.058 51.1013 359.875 48.9815 361.995 46.8617C364.72 44.1363 368.354 42.3194 371.988 40.5024C379.559 37.1713 387.735 35.3544 396.214 34.4459C387.735 33.5374 378.953 34.1431 370.474 36.5657C366.234 37.777 361.995 39.5939 358.361 42.3193C356.544 43.8335 354.727 45.3476 353.213 47.4674C351.699 49.5872 350.79 52.3126 350.487 55.038C350.487 55.3409 350.487 55.9465 350.487 56.5522C349.579 56.855 348.973 57.1578 347.762 57.1578C345.037 57.1578 341.705 55.6437 338.98 53.5239C338.374 52.9183 337.769 52.3126 336.86 51.707C336.255 50.7985 335.346 50.1928 335.043 49.2843C342.311 47.1646 348.368 41.108 342.008 32.6289C336.255 24.7555 328.381 30.812 321.719 26.8752C325.656 36.2628 326.867 36.5657 330.804 38.0798C337.769 40.5024 340.494 41.108 339.283 43.8335C338.072 46.2561 333.832 48.073 331.712 46.5589C329.895 45.0448 328.078 43.5307 325.959 42.0165C325.05 41.4109 324.142 40.8052 323.233 40.5024L318.994 35.96C313.846 27.1781 317.177 17.4876 312.029 8.70568C305.669 -1.89322 292.648 5.07178 283.563 0.226562C289.317 9.31134 289.619 19.6074 299.007 25.3611C304.761 28.6922 310.514 26.8752 310.514 26.8752C313.24 29.9035 314.754 32.6289 317.479 36.2628C305.064 28.3894 287.803 32.0233 274.175 44.742C275.992 42.6222 277.506 40.1996 277.204 37.1713C276.598 32.0233 271.753 28.0865 267.21 30.812C265.999 31.4176 263.576 33.8402 262.365 35.3544C254.492 43.5307 254.492 54.1296 245.407 61.3974C262.062 55.9465 275.387 71.3906 288.711 59.5804C295.07 53.8267 291.134 46.8617 285.986 45.6504L298.704 39.5939C290.528 40.1996 287.802 41.7137 285.077 43.5307C280.838 45.3476 278.112 46.8617 276.295 48.073C289.922 36.2628 303.852 29.9035 319.902 39.2911C314.754 37.777 309.303 38.6854 304.458 42.6222C299.007 46.8617 298.099 53.2211 301.43 57.7635C302.338 59.2776 303.549 60.7917 305.366 62.6087C309.909 66.5454 322.325 66.2426 321.113 56.855C319.902 48.073 307.789 47.4674 304.458 57.1578C304.155 56.855 304.458 57.1578 304.155 56.855C299.916 44.4391 316.874 45.9533 326.261 48.9815C328.684 49.89 330.501 50.7985 331.712 51.4041C332.924 52.3126 334.135 53.2211 335.346 54.1296C343.22 61.3974 349.882 68.3624 359.572 69.5737H340.494C337.769 68.3624 335.649 66.2426 333.529 62.3059C331.107 56.855 328.987 53.5239 322.93 52.3126C329.592 55.038 332.621 66.2426 326.867 69.8765H304.458C300.521 68.0595 297.796 64.4256 295.373 60.1861C295.07 63.2143 296.282 67.1511 298.704 69.8765H293.859C280.838 69.8765 267.513 70.1793 254.492 70.1793C256.611 68.3624 258.126 65.9398 260.245 64.1228C257.52 62.6087 252.675 68.0595 249.646 69.5737C249.041 69.8765 248.435 70.1793 247.829 70.1793C245.407 70.1793 242.681 70.1793 240.259 70.1793C239.653 69.8765 238.745 69.8765 237.836 69.5737C233.9 67.4539 230.266 64.7285 228.449 61.3974C233.294 63.82 233.294 55.9465 231.477 53.2211C229.054 49.5872 224.815 48.9815 220.878 48.073C210.885 45.9533 201.194 44.4391 193.624 35.96C193.624 41.4109 198.166 48.9815 200.891 53.8267C203.617 58.9748 206.948 64.4256 212.096 66.5454C216.033 68.0595 223.603 68.3624 223.603 61.7002C223.603 56.855 215.427 53.8267 212.096 55.9465C216.336 49.5872 223.301 57.7635 225.42 61.7002C227.237 65.3341 229.66 68.3624 232.385 70.1793C229.054 70.1793 225.723 70.1793 222.695 70.1793H222.392C218.455 70.1793 214.216 70.1793 210.279 70.1793C200.286 64.4256 188.476 49.5872 169.095 56.855C170.609 53.8267 170.912 50.1928 167.581 49.5872C163.947 48.9815 161.221 52.6154 159.404 54.4324C154.862 58.6719 146.686 62.003 140.932 59.5804C153.045 65.9398 168.489 58.0663 179.088 57.1578C189.081 56.2493 194.835 64.7285 202.103 69.8765C199.983 69.8765 197.863 69.8765 195.743 69.8765C190.293 69.8765 185.145 69.8765 179.694 70.1793C182.722 68.0595 184.539 64.7285 183.933 59.5804C172.123 85.6234 129.425 45.9533 110.044 67.7567C119.734 56.5522 137.298 66.2426 149.714 69.8765C150.622 70.1793 151.834 70.4821 153.045 70.785C134.573 71.0878 116.403 71.3906 97.9307 71.6935L49.4786 72.9048L24.9497 73.5104L0.723633 74.1161L25.2525 74.7217L49.7814 75.3274L98.5364 76.2358C131.242 76.8415 163.644 77.1443 196.349 77.75C229.054 78.0528 261.457 78.3556 294.162 78.6584L382.284 78.9613L370.777 73.8132C368.051 71.9963 365.023 68.968 363.206 65.6369C367.446 66.2426 371.382 66.8482 375.016 67.7567C378.953 68.6652 382.587 69.8765 385.615 71.6935C388.643 73.5104 391.066 76.2358 392.883 79.5669L396.214 85.6234L399.848 79.8698C401.968 76.8415 404.39 74.1161 407.419 71.9963C410.447 69.8765 414.081 68.6652 418.018 67.7567C421.652 66.8482 425.588 66.2426 430.131 65.6369C428.314 68.6652 425.285 71.6935 422.56 73.8132L411.053 78.9613L499.175 78.6584C531.88 78.3556 564.282 78.3556 596.988 77.75C629.693 77.4471 662.095 76.8415 694.8 76.2358L743.555 75.3274L768.084 74.7217L792.613 74.1161L767.479 73.5104Z" fill="url(#paint0_linear_204_295)" fill-opacity="0.8"/>
<defs>
<linearGradient id="paint0_linear_204_295" x1="207.917" y1="23.038" x2="671.912" y2="286.499" gradientUnits="userSpaceOnUse">
<stop stop-color="#A2DA00"/>
<stop offset="1" stop-color="#93C600"/>
</linearGradient>
</defs>
</svg>
