<svg width="592" height="335" viewBox="0 0 592 335" fill="none" xmlns="http://www.w3.org/2000/svg">
<path d="M523.216 185.216L503.81 231.387L572.309 260.179L591.716 214.008L523.216 185.216Z" fill="#B7E72C" fill-opacity="0.4"/>
<path d="M591.705 214.692C591.713 214.713 591.404 214.832 590.809 215.038C590.151 215.258 589.283 215.547 588.199 215.908C585.854 216.657 582.578 217.703 578.556 218.988C570.329 221.549 559.066 225.054 546.592 228.935L546.329 229.017L546.197 228.774C546.096 228.589 545.986 228.388 545.876 228.187C539.584 216.562 533.888 206.042 529.725 198.35C527.713 194.565 526.073 191.48 524.898 189.27C524.366 188.238 523.939 187.412 523.616 186.786C523.33 186.214 523.188 185.908 523.209 185.897C523.23 185.886 523.41 186.17 523.736 186.721C524.087 187.331 524.55 188.137 525.129 189.144C526.349 191.329 528.053 194.379 530.144 198.121C534.352 205.788 540.108 216.276 546.469 227.864C546.578 228.065 546.687 228.266 546.788 228.451L546.393 228.29C558.89 224.483 570.174 221.046 578.417 218.535C582.464 217.335 585.762 216.358 588.122 215.658C589.222 215.346 590.102 215.098 590.769 214.909C591.377 214.745 591.699 214.669 591.705 214.692Z" fill="#A2DA00" fill-opacity="0.3"/>
<path d="M503.801 232.066C503.717 231.901 511.528 227.737 521.246 222.769C530.968 217.798 538.915 213.904 539 214.07C539.084 214.236 531.275 218.398 521.553 223.369C511.835 228.338 503.886 232.232 503.801 232.066Z" fill="#A2DA00" fill-opacity="0.3"/>
<path d="M562.009 223.063C562.189 223.014 564.637 231.436 567.477 241.872C570.318 252.311 572.475 260.81 572.296 260.86C572.116 260.909 569.668 252.488 566.826 242.049C563.986 231.614 561.829 223.112 562.009 223.063Z" fill="#A2DA00" fill-opacity="0.3"/>
<path d="M84.0752 269.524L69.6426 303.86L120.584 325.273L135.017 290.936L84.0752 269.524Z" fill="#F5F5F5"/>
<path d="M134.994 291.436C135 291.452 134.77 291.54 134.328 291.693C133.839 291.856 133.194 292.071 132.388 292.339C130.644 292.897 128.207 293.675 125.217 294.631C119.098 296.535 110.722 299.142 101.445 302.028L101.249 302.089L101.151 301.908C101.076 301.771 100.994 301.621 100.913 301.472C96.2331 292.826 91.9977 285.003 88.9008 279.282C87.4041 276.467 86.1846 274.173 85.3116 272.53C84.9156 271.763 84.5979 271.148 84.3576 270.683C84.1443 270.258 84.0399 270.03 84.0552 270.022C84.0705 270.014 84.2046 270.225 84.4467 270.634C84.7077 271.089 85.0524 271.688 85.4826 272.437C86.3898 274.061 87.657 276.329 89.2122 279.112C92.3415 284.815 96.6228 292.613 101.353 301.232C101.434 301.381 101.516 301.53 101.591 301.668L101.297 301.548C110.592 298.717 118.982 296.161 125.113 294.293C128.124 293.401 130.575 292.674 132.331 292.154C133.148 291.923 133.803 291.737 134.299 291.597C134.75 291.475 134.99 291.42 134.994 291.436Z" fill="#E0E0E0"/>
<path d="M69.6216 304.357C69.5586 304.234 75.3681 301.138 82.5951 297.442C89.8248 293.746 95.7351 290.851 95.7981 290.974C95.8611 291.097 90.0534 294.192 82.8237 297.89C75.5958 301.584 69.6846 304.48 69.6216 304.357Z" fill="#E0E0E0"/>
<path d="M112.91 297.663C113.043 297.627 114.865 303.89 116.977 311.651C119.09 319.414 120.694 325.735 120.56 325.772C120.427 325.808 118.606 319.546 116.493 311.783C114.381 304.022 112.776 297.7 112.91 297.663Z" fill="#E0E0E0"/>
<path d="M60.623 156.861L0.200195 180.804L23.3646 239.262L83.7874 215.319L60.623 156.861Z" fill="#86B500" fill-opacity="0.4"/>
<path d="M26.0664 232.392L30.8598 195.688L52.1502 209.497L56.4108 195.995L77.118 212.162L26.0664 232.392Z" fill="#86B500" fill-opacity="0.4"/>
<path d="M48.0376 182.111C48.9889 184.512 47.8135 187.231 45.4123 188.182C43.0111 189.134 40.2931 187.958 39.3409 185.557C38.3896 183.156 39.5641 180.438 41.9662 179.486C44.3683 178.534 47.0863 179.71 48.0376 182.111Z" fill="#86B500" fill-opacity="0.4"/>
<g opacity="0.3">
<path d="M77.1802 212.323C77.1739 212.321 77.137 212.241 77.0713 212.089C76.9993 211.916 76.9056 211.694 76.7878 211.414C76.534 210.794 76.1767 209.92 75.7168 208.795C74.7834 206.482 73.4326 203.138 71.719 198.892C68.3044 190.366 63.4426 178.224 57.6052 163.647L57.9499 163.795C43.1692 169.667 25.648 176.627 6.91985 184.065C6.87485 184.152 7.24565 183.31 7.09175 183.674L7.09715 183.686L7.10705 183.712L7.12775 183.765L7.16915 183.869L7.25195 184.078L7.41755 184.495L7.74785 185.327L8.40575 186.987C8.84315 188.093 9.27875 189.192 9.71345 190.288C10.5811 192.478 11.4406 194.649 12.2911 196.797C13.9912 201.093 15.6553 205.3 17.2753 209.396C20.5099 217.586 23.5681 225.33 26.3815 232.454L26.0314 232.302C41.2891 226.318 54.034 221.318 62.9935 217.803C67.4664 216.063 70.9926 214.69 73.4307 213.743C74.6241 213.285 75.5494 212.929 76.2046 212.677C76.5061 212.565 76.7419 212.476 76.9255 212.408C77.0874 212.349 77.1739 212.32 77.1802 212.323C77.1874 212.326 77.1135 212.36 76.9623 212.426C76.7878 212.499 76.5646 212.593 76.2793 212.713C75.6412 212.973 74.7402 213.342 73.5774 213.817C71.1655 214.791 67.6753 216.2 63.2491 217.986C54.2743 221.578 41.5096 226.688 26.2276 232.805L25.9774 232.905L25.8775 232.653C23.047 225.537 19.9707 217.8 16.7163 209.617C15.0909 205.524 13.4224 201.318 11.7169 197.024C10.8655 194.877 10.0042 192.706 9.13655 190.516C8.70185 189.421 8.26625 188.321 7.82795 187.216L7.17005 185.556L6.83975 184.723L6.67415 184.306L6.59135 184.098L6.54995 183.993L6.52925 183.941L6.51935 183.915L6.51395 183.902C6.35735 184.257 6.72095 183.404 6.68945 183.49C25.4293 176.081 42.9622 169.15 57.7519 163.301L58.0003 163.204L58.0975 163.452C63.8557 178.136 68.6518 190.365 72.0205 198.954C73.6702 203.197 74.9697 206.541 75.868 208.851C76.2954 209.967 76.6275 210.833 76.8633 211.446C76.965 211.721 77.046 211.936 77.109 212.106C77.163 212.252 77.1874 212.325 77.1802 212.323Z" fill="#86B500" fill-opacity="0.4"/>
</g>
<path d="M406.753 316.864L403.487 314.501C401.632 313.158 400.323 311.189 399.804 308.958L397.503 299.072C395.981 292.533 389.915 288.25 383.421 288.748L382.528 284.909C382.302 283.937 381.331 283.333 380.359 283.559C379.387 283.785 378.783 284.756 379.009 285.728L379.886 289.497C373.566 291.767 369.805 298.455 371.365 305.155L373.576 314.659C374.058 316.73 373.831 318.904 372.932 320.831L370.887 325.211L384.198 322.114C385.066 323.367 386.423 324.289 387.93 324.546C390.05 324.906 392.338 323.943 393.561 322.174C394.064 321.446 394.366 320.597 394.484 319.721L406.753 316.864Z" fill="#A2DA00" fill-opacity="0.7"/>
<path d="M414.473 73.7588L472.055 111.384L447.789 151.405L388.815 111.464L414.473 73.7588Z" fill="#A2DA00" fill-opacity="0.7"/>
<path d="M414.476 73.7597L456.165 69.8186C457.93 69.6512 459.57 70.7474 460.091 72.4421L472.059 111.385" fill="white"/>
<path d="M414.476 73.7597L456.165 69.8186C457.93 69.6512 459.57 70.7474 460.091 72.4421L472.059 111.385" fill="#B7E72C" fill-opacity="0.4"/>
<path d="M388.815 111.465C388.788 111.351 396.701 109.387 406.487 107.08C416.276 104.772 424.231 102.995 424.258 103.109C424.285 103.224 416.374 105.186 406.585 107.495C396.799 109.802 388.842 111.579 388.815 111.465Z" fill="#B7E72C" fill-opacity="0.4"/>
<path d="M447.789 151.407C447.673 151.423 446.463 143.55 445.087 133.823C443.711 124.093 442.691 116.193 442.807 116.177C442.923 116.161 444.133 124.033 445.509 133.763C446.885 143.49 447.905 151.39 447.789 151.407Z" fill="#B7E72C" fill-opacity="0.4"/>
<path d="M414.475 73.7588L428.02 115.269L472.057 111.384L414.475 73.7588Z" fill="#B7E72C" fill-opacity="0.4"/>
<path d="M415.947 77.8025L427.74 59.8457L478.312 92.5625L466.377 111.77L428.218 114.966L415.947 77.8025Z" fill="#86B500" fill-opacity="0.1"/>
<path d="M415.947 77.8024C415.947 77.8024 416.043 78.0337 416.198 78.4783C416.358 78.9409 416.584 79.5961 416.875 80.4439C417.462 82.1845 418.314 84.709 419.401 87.9283C421.561 94.4038 424.651 103.668 428.401 114.907L428.202 114.775C439.201 113.843 452.243 112.736 466.357 111.539L466.18 111.648C468.456 107.983 470.845 104.138 473.275 100.226C474.912 97.5925 476.529 94.9906 478.115 92.44L478.186 92.7586C457.833 79.552 439.877 67.9006 427.658 59.9716L427.865 59.9275C424.14 65.5426 421.179 70.0066 419.138 73.0846C418.12 74.6038 417.332 75.7801 416.787 76.5937C416.523 76.9798 416.319 77.2795 416.17 77.4982C416.03 77.7007 415.947 77.8024 415.947 77.8024C415.947 77.8024 416.001 77.6962 416.128 77.4919C416.267 77.2723 416.458 76.9699 416.704 76.5802C417.232 75.7603 417.995 74.575 418.979 73.0441C420.999 69.9373 423.928 65.431 427.613 59.7628L427.694 59.6377L427.82 59.7187C440.061 67.6144 458.048 79.2154 478.438 92.3662L478.63 92.4904L478.509 92.6848C476.924 95.2363 475.307 97.8391 473.671 100.472C471.24 104.384 468.85 108.228 466.572 111.892L466.511 111.991L466.395 112.001C452.279 113.169 439.234 114.248 428.233 115.158L428.081 115.17L428.034 115.026C424.345 103.737 421.305 94.4299 419.179 87.9256C418.139 84.7027 417.322 82.1746 416.759 80.4322C416.492 79.5871 416.285 78.9328 416.139 78.4711C416.003 78.0283 415.947 77.8024 415.947 77.8024Z" fill="#B7E72C" fill-opacity="0.4"/>
<path d="M464.401 96.3097C464.33 96.4177 456.567 91.4578 447.065 85.2325C437.559 79.0054 429.914 73.8709 429.984 73.762C430.055 73.654 437.816 78.613 447.321 84.8401C456.825 91.0654 464.472 96.2017 464.401 96.3097Z" fill="#B7E72C" fill-opacity="0.4"/>
<path d="M461.044 101.365C460.973 101.473 453.211 96.5135 443.709 90.2882C434.203 84.0611 426.557 78.9266 426.627 78.8177C426.698 78.7088 434.459 83.6687 443.965 89.8958C453.468 96.122 461.115 101.257 461.044 101.365Z" fill="#B7E72C" fill-opacity="0.4"/>
<path d="M457.177 107.192C457.106 107.3 449.344 102.34 439.841 96.1148C430.336 89.8877 422.69 84.7532 422.76 84.6443C422.831 84.5363 430.592 89.4953 440.098 95.7224C449.601 101.949 457.248 107.084 457.177 107.192Z" fill="#B7E72C" fill-opacity="0.4"/>
<path d="M453.309 113.02C453.238 113.128 445.83 108.4 436.764 102.461C427.695 96.5199 420.403 91.6167 420.474 91.5087C420.545 91.4007 427.952 96.1275 437.021 102.068C446.087 108.007 453.38 112.912 453.309 113.02Z" fill="#B7E72C" fill-opacity="0.4"/>
<path d="M443.496 113.874C443.478 113.901 443.183 113.745 442.665 113.439C442.063 113.07 441.34 112.627 440.494 112.109C438.581 110.893 436.125 109.331 433.409 107.606C430.646 105.838 428.171 104.196 426.396 102.985C425.507 102.381 424.794 101.883 424.306 101.53C423.818 101.177 423.557 100.97 423.575 100.942C423.593 100.915 423.887 101.072 424.406 101.377C425.007 101.746 425.731 102.189 426.577 102.707C428.49 103.923 430.946 105.485 433.662 107.211C436.424 108.979 438.899 110.62 440.675 111.831C441.563 112.435 442.277 112.933 442.765 113.286C443.252 113.639 443.513 113.847 443.496 113.874Z" fill="#B7E72C" fill-opacity="0.4"/>
<path d="M433.771 114.501C433.7 114.609 432.005 113.61 429.988 112.27C427.969 110.93 426.391 109.757 426.462 109.65C426.533 109.542 428.228 110.541 430.247 111.881C432.265 113.22 433.843 114.393 433.771 114.501Z" fill="#B7E72C" fill-opacity="0.4"/>
<path d="M213.371 107.454L204.53 120.629L201.068 119.206L175.408 135.427L170.405 121.852C170.405 121.852 184.937 117.553 188.082 112.932C191.228 108.31 188.408 106.839 188.408 106.839L195.796 100.228L213.371 107.454Z" fill="#B7E72C" fill-opacity="0.4"/>
<path d="M207.489 77.6723C207.489 77.6723 197.284 74.0984 184.231 58.1468C171.178 42.1952 166.501 22.5275 164.684 22.4033C162.867 22.2791 155.422 17.6747 136.522 48.4979C117.622 79.3211 122.621 87.6029 125.613 87.8999C128.604 88.196 149.541 84.9749 162.024 87.9287C174.507 90.8825 189.983 99.4253 189.983 99.4253L207.489 77.6723Z" fill="#B7E72C" fill-opacity="0.4"/>
<path d="M227.587 99.3566L223.197 105.728L221.229 108.582C218.532 112.497 213.242 113.615 209.191 111.127L187.659 100.609L204.321 72.3018L225.337 86.952C229.371 89.7654 230.377 95.3075 227.587 99.3566Z" fill="#A2DA00" fill-opacity="0.3"/>
<path d="M137.662 49.2385C127.567 65.9533 122.359 81.301 126.031 83.5195C129.703 85.738 140.865 73.9858 150.961 57.2719C161.057 40.558 166.264 25.2094 162.592 22.9918C158.919 20.7724 147.758 32.5237 137.662 49.2385Z" fill="#A2DA00" fill-opacity="0.3"/>
<path d="M222.753 99.9677C222.641 100.154 219.743 98.6087 216.281 96.5162C212.817 94.4237 210.103 92.576 210.215 92.3897C210.327 92.2034 213.225 93.7487 216.688 95.8412C220.15 97.9346 222.866 99.7823 222.753 99.9677Z" fill="#B7E72C" fill-opacity="0.4"/>
<path d="M225.138 95.9245C225.018 96.1072 222.407 94.6185 219.304 92.6007C216.2 90.5811 213.782 88.7973 213.901 88.6146C214.019 88.4328 216.629 89.9206 219.734 91.9402C222.837 93.9589 225.256 95.7427 225.138 95.9245Z" fill="#B7E72C" fill-opacity="0.4"/>
<path d="M219.855 104.161C219.811 104.261 219.107 104.008 217.996 103.513C217.441 103.267 216.785 102.959 216.06 102.607C215.342 102.245 214.61 101.758 213.82 101.279C210.674 99.3338 208.311 97.5149 208.415 97.3448C208.54 97.1441 211.114 98.6804 214.231 100.606C215.014 101.081 215.732 101.586 216.421 101.975C217.113 102.356 217.732 102.708 218.247 103.015C219.278 103.63 219.899 104.062 219.855 104.161Z" fill="#B7E72C" fill-opacity="0.4"/>
<path d="M154.401 47.2555C154.401 47.2555 145.966 40.5154 139.508 52.228C133.049 63.9406 142.393 67.1131 142.393 67.1131C147.044 61.4989 151.065 54.9091 154.401 47.2555Z" fill="#93C600"/>
<path d="M165.847 33.7448C165.899 33.7601 165.67 34.5809 165.209 36.0542C164.741 37.5239 164.072 39.6587 163.167 42.2696C162.623 43.544 162.03 44.9354 161.394 46.4267C161.073 47.1737 160.741 47.9459 160.399 48.7415C160.227 49.1393 160.053 49.5426 159.877 49.9511C159.69 50.3552 159.464 50.7467 159.254 51.1526C158.395 52.7681 157.493 54.4619 156.56 56.2178C156.326 56.657 156.089 57.0989 155.851 57.5453C155.618 57.9944 155.314 58.4066 155.045 58.8449C154.49 59.7098 153.927 60.5874 153.357 61.4757C152.785 62.3631 152.221 63.2396 151.664 64.1045C151.377 64.5302 151.127 64.9776 150.816 65.3772C150.509 65.7794 150.204 66.179 149.902 66.5741C148.692 68.1527 147.524 69.6764 146.412 71.1291C146.129 71.4881 145.867 71.8562 145.576 72.1946C145.278 72.5258 144.983 72.8525 144.691 73.1738C144.109 73.8164 143.543 74.4401 142.996 75.0431C141.902 76.2419 140.881 77.3615 139.946 78.3857C137.951 80.2883 136.291 81.7788 135.149 82.8138C134.002 83.8433 133.349 84.3941 133.311 84.3545C133.274 84.3158 133.855 83.6894 134.937 82.5914C136.056 81.4754 137.629 79.9076 139.56 77.9825C140.465 76.9457 141.454 75.8135 142.516 74.5994C143.048 73.9928 143.599 73.3664 144.166 72.7211C144.451 72.3989 144.738 72.0723 145.03 71.7411C145.314 71.4026 145.57 71.0318 145.846 70.6727C146.94 69.221 148.087 67.6982 149.277 66.1205C149.575 65.7263 149.876 65.3286 150.179 64.9281C150.487 64.5303 150.734 64.0856 151.017 63.6608C151.569 62.8013 152.128 61.9301 152.694 61.0481C153.261 60.167 153.821 59.2967 154.374 58.439C154.641 58.0052 154.945 57.5957 155.179 57.1511C155.417 56.7092 155.654 56.2709 155.889 55.8362C156.83 54.1001 157.739 52.4243 158.605 50.8268C158.817 50.4254 159.048 50.0393 159.238 49.6406C159.418 49.2365 159.596 48.8387 159.772 48.4454C160.124 47.6606 160.466 46.8983 160.797 46.1612C161.461 44.6915 162.082 43.3199 162.649 42.0644C163.597 39.5138 164.369 37.4375 164.918 35.9579C165.467 34.5197 165.796 33.7295 165.847 33.7448Z" fill="#A2DA00" fill-opacity="0.3"/>
<path d="M117.076 58.0052C117.069 58.1348 110.455 57.9161 102.305 57.5165C94.1518 57.1178 87.5494 56.6894 87.5557 56.5598C87.562 56.4302 94.1743 56.6489 102.327 57.0485C110.478 57.4472 117.082 57.8756 117.076 58.0052Z" fill="#B7E72C" fill-opacity="0.4"/>
<path d="M123.509 38.7141C123.45 38.8293 115.784 35.0826 106.388 30.3468C96.9883 25.6083 89.4184 21.6753 89.4769 21.5592C89.5354 21.444 97.1998 25.1898 106.599 29.9274C115.995 34.6641 123.567 38.5989 123.509 38.7141Z" fill="#B7E72C" fill-opacity="0.4"/>
<path d="M135.066 26.2877C134.941 26.321 133.282 20.5079 131.359 13.3052C129.436 6.09984 127.98 0.233638 128.104 0.200338C128.229 0.167038 129.889 5.97924 131.812 13.1837C133.734 20.3873 135.192 26.2544 135.066 26.2877Z" fill="#B7E72C" fill-opacity="0.4"/>
<path d="M348.553 78.6325C347.924 76.4896 346.51 74.6266 344.76 73.2388C343.046 71.8798 340.952 70.9366 338.766 70.843C336.444 70.7431 334.096 71.6404 332.434 73.2631C331.445 74.2288 330.706 75.442 330.279 76.756C329.47 75.7957 328.456 75.0091 327.315 74.4853C325.203 73.516 322.69 73.4593 320.537 74.3341C318.511 75.1576 316.856 76.7497 315.697 78.6055C314.516 80.5 313.81 82.7302 313.938 84.9595C314.098 87.7522 315.146 90.6574 316.975 92.7733C318.907 95.008 321.679 96.6028 324.431 97.6738C329.06 99.4738 335.126 101.68 335.126 101.68C335.126 101.68 339.186 97.384 342.941 94.1332C345.174 92.2 347.249 89.7664 348.316 87.0133C349.328 84.4051 349.339 81.3163 348.553 78.6325Z" fill="#A2DA00" fill-opacity="0.7"/>
<path d="M308.186 54.8121C308.245 53.4909 307.811 52.1751 307.097 51.0618C306.398 49.971 305.406 49.0404 304.2 48.567C302.919 48.0648 301.431 48.1161 300.187 48.7056C299.447 49.0566 298.8 49.5939 298.309 50.2482C298.041 49.5552 297.623 48.9189 297.085 48.4068C296.088 47.4573 294.691 46.9434 293.317 47.019C292.022 47.0901 290.789 47.6643 289.784 48.4815C288.758 49.3158 287.934 50.43 287.577 51.7035C287.131 53.2983 287.159 55.128 287.777 56.6643C288.43 58.2879 289.676 59.7135 291.012 60.8421C293.259 62.7402 296.233 65.1423 296.233 65.1423C296.233 65.1423 299.333 63.516 302.062 62.4171C303.685 61.7628 305.315 60.7989 306.442 59.4615C307.511 58.1952 308.111 56.4672 308.186 54.8121Z" fill="#A2DA00" fill-opacity="0.7"/>
<path d="M185.99 285.947C185.476 284.729 184.519 283.727 183.396 283.029C182.296 282.345 181 281.93 179.707 282.021C178.335 282.119 177.014 282.804 176.144 283.872C175.627 284.506 175.274 285.27 175.111 286.072C174.571 285.562 173.92 285.167 173.214 284.936C171.906 284.507 170.424 284.643 169.215 285.303C168.078 285.924 167.211 286.971 166.655 288.141C166.087 289.336 165.821 290.696 166.047 291.999C166.33 293.631 167.142 295.27 168.36 296.393C169.647 297.578 171.385 298.329 173.077 298.775C175.922 299.523 179.64 300.413 179.64 300.413C179.64 300.413 181.74 297.612 183.731 295.447C184.915 294.159 185.972 292.587 186.415 290.895C186.835 289.293 186.634 287.474 185.99 285.947Z" fill="#A2DA00" fill-opacity="0.7"/>
<path d="M540.093 122.038C539.991 122.045 540.189 120.311 539.558 117.308C539.266 115.806 538.627 114.021 537.593 112.118C536.549 110.221 535.021 108.226 532.905 106.503C530.796 104.795 528.113 103.309 524.979 102.633C521.865 101.978 518.324 101.942 514.908 103.093C513.191 103.617 511.523 104.444 509.978 105.51C509.182 106.013 508.478 106.654 507.743 107.268C507.074 107.955 506.372 108.624 505.788 109.41C503.318 112.443 501.84 116.406 501.641 120.543C501.517 124.683 502.685 128.751 504.911 131.968C505.433 132.797 506.08 133.519 506.694 134.255C507.38 134.925 508.032 135.618 508.787 136.182C510.244 137.364 511.844 138.318 513.515 138.974C516.832 140.387 520.365 140.625 523.521 140.213C526.698 139.781 529.488 138.508 531.723 136.969C533.965 135.415 535.644 133.544 536.832 131.735C538.011 129.918 538.785 128.188 539.192 126.713C540.055 123.767 539.991 122.025 540.093 122.038C540.103 122.038 540.104 122.145 540.096 122.353C540.082 122.595 540.064 122.9 540.043 123.277C540.026 123.684 539.983 124.187 539.861 124.771C539.758 125.358 539.656 126.04 539.415 126.778C539.037 128.281 538.282 130.049 537.111 131.916C535.929 133.773 534.24 135.703 531.965 137.313C529.697 138.908 526.85 140.235 523.592 140.701C520.359 141.146 516.729 140.919 513.309 139.481C511.587 138.813 509.937 137.838 508.432 136.625C507.654 136.046 506.979 135.335 506.272 134.646C505.637 133.89 504.97 133.146 504.43 132.295C502.129 128.986 500.918 124.788 501.048 120.52C501.251 116.257 502.784 112.166 505.333 109.048C505.937 108.24 506.661 107.551 507.352 106.847C508.11 106.215 508.838 105.558 509.659 105.043C511.253 103.95 512.973 103.106 514.742 102.574C518.262 101.405 521.899 101.461 525.087 102.156C528.299 102.871 531.036 104.415 533.172 106.181C535.316 107.963 536.85 110.017 537.885 111.961C538.909 113.912 539.523 115.735 539.784 117.263C539.968 118.018 540.018 118.706 540.073 119.299C540.151 119.891 540.153 120.394 540.139 120.802C540.132 121.18 540.126 121.484 540.12 121.727C540.112 121.933 540.103 122.039 540.093 122.038Z" fill="#86B500" fill-opacity="0.4"/>
<path d="M520.631 141.354C518.408 141.354 515.786 141.011 513.134 139.895C511.397 139.221 509.715 138.238 508.149 136.974C507.508 136.498 506.924 135.92 506.357 135.361L505.958 134.967L505.61 134.56C505.072 133.927 504.516 133.271 504.049 132.534C501.695 129.149 500.466 124.871 500.597 120.506C500.805 116.136 502.363 111.968 504.985 108.762C505.498 108.075 506.106 107.463 506.694 106.87L507.031 106.53L507.486 106.145C508.095 105.629 508.725 105.096 509.418 104.66C511.064 103.532 512.816 102.681 514.612 102.14C518.71 100.779 522.624 101.155 525.183 101.712C528.132 102.37 530.993 103.794 533.458 105.83C535.426 107.466 537.092 109.511 538.28 111.746C539.267 113.624 539.939 115.504 540.226 117.183C540.392 117.857 540.449 118.493 540.502 119.056L540.521 119.252C540.586 119.755 540.609 120.257 540.588 120.815L540.569 121.733C540.564 121.878 540.56 121.99 540.546 122.08C540.553 122.18 540.548 122.282 540.545 122.371L540.491 123.301C540.469 123.852 540.408 124.35 540.301 124.861L540.268 125.054C540.174 125.606 540.065 126.233 539.842 126.916C539.434 128.537 538.618 130.359 537.491 132.153C536.13 134.292 534.31 136.202 532.224 137.678C529.608 139.518 526.645 140.716 523.655 141.144C522.782 141.266 521.758 141.354 520.631 141.354ZM520.661 102.627C518.933 102.627 517.013 102.859 515.052 103.52C513.386 104.029 511.768 104.822 510.234 105.881C509.607 106.276 509.055 106.745 508.471 107.242L507.71 107.943C507.169 108.489 506.611 109.054 506.149 109.678C503.722 112.66 502.284 116.52 502.089 120.564C501.969 124.604 503.102 128.566 505.28 131.712C505.707 132.387 506.22 132.995 506.717 133.584L507.04 133.966L507.413 134.333C507.959 134.875 508.475 135.387 509.056 135.82C510.518 137.006 512.069 137.923 513.68 138.554C517.379 140.129 521.038 140.082 523.463 139.766C526.238 139.389 529.007 138.293 531.469 136.598C533.429 135.24 535.154 133.472 536.456 131.487C537.541 129.815 538.337 128.121 538.759 126.592C539.354 124.563 539.5 123.128 539.57 122.438C539.589 122.257 539.602 122.123 539.623 122.02C539.61 121.914 539.607 121.779 539.603 121.597C539.587 120.904 539.553 119.462 539.119 117.399C538.813 115.831 538.15 114.082 537.199 112.331C536.055 110.252 534.471 108.357 532.622 106.851C530.3 104.971 527.624 103.664 524.884 103.073C523.728 102.831 522.279 102.627 520.661 102.627Z" fill="#86B500" fill-opacity="0.4"/>
<path d="M533.44 135.918C533.561 135.807 537.626 140.005 542.519 145.293C547.415 150.584 551.284 154.961 551.163 155.073C551.042 155.184 546.978 150.987 542.083 145.697C537.191 140.408 533.32 136.03 533.44 135.918Z" fill="#86B500" fill-opacity="0.4"/>
<path d="M551.33 155.529L551.138 155.525C550.96 155.518 550.542 155.503 541.752 146.002C532.962 136.503 532.979 136.086 532.986 135.907L532.994 135.721L533.133 135.588C533.512 135.232 533.546 135.205 536.512 138.267C538.228 140.04 540.479 142.426 542.849 144.987C545.218 147.548 547.423 149.976 549.057 151.827C551.88 155.021 551.849 155.05 551.466 155.402L551.33 155.529Z" fill="#86B500" fill-opacity="0.4"/>
<path d="M94.0559 114.955L90.3056 116.458L77.5499 108.331L74.5502 100.845C74.5502 100.845 68.6102 102.812 73.22 112.342C77.8307 121.872 76.0928 119.671 76.0928 119.671C76.0928 119.671 63.8024 124.651 63.2084 126.131C62.7755 127.206 67.3385 139.568 69.8675 146.251C71.1401 149.615 74.4323 151.9 77.8532 151.444C78.3392 151.38 78.8117 151.267 79.2491 151.091C82.319 149.861 97.0052 141.08 97.0052 141.08L103.484 138.484L94.0559 114.955Z" fill="#A2DA00" fill-opacity="0.7"/>
<path d="M103.968 108.597L111.94 135.174L105.517 137.748L95.4453 112.612L103.968 108.597Z" fill="#A2DA00" fill-opacity="0.7"/>
<path d="M475.395 282.323L470.975 283.052L459.112 271.199L457.658 262.375C457.658 262.375 450.757 263.082 453.465 274.503C456.175 285.924 454.819 283.125 454.819 283.125C454.819 283.125 440.321 285.573 439.323 287.032C438.597 288.093 440.577 302.569 441.714 310.409C442.286 314.356 445.302 317.617 449.115 317.944C449.657 317.991 450.195 317.982 450.711 317.897C454.329 317.3 472.332 311.311 472.332 311.311L479.967 310.052L475.395 282.323Z" fill="#86B500" fill-opacity="0.4"/>
<path d="M487.65 277.813L489.916 308.494L482.345 309.743L477.461 280.118L487.65 277.813Z" fill="#86B500" fill-opacity="0.4"/>
<path d="M240.404 310.903C244.641 310.531 248.531 307.528 250.005 302.996C251.932 297.057 248.981 290.776 243.412 288.965C237.847 287.156 231.77 290.502 229.842 296.441C228.357 301.017 229.785 305.772 233.059 308.553C216.773 305.922 212.075 323.034 212.075 323.034L248.761 334.959C248.761 334.959 255.061 318.157 240.404 310.903Z" fill="#A2DA00" fill-opacity="0.7"/>
<path d="M479.886 264.576H117.948C87.1034 264.576 62.0996 239.571 62.0996 208.727V204.797C62.0996 173.953 87.1043 148.948 117.948 148.948H479.886C510.73 148.948 535.735 173.953 535.735 204.797V208.727C535.735 239.572 510.731 264.576 479.886 264.576Z" fill="#FF725E"/>
<g opacity="0.7">
<path d="M479.886 264.576H117.948C87.1034 264.576 62.0996 239.571 62.0996 208.727V204.797C62.0996 173.953 87.1043 148.948 117.948 148.948H479.886C510.73 148.948 535.735 173.953 535.735 204.797V208.727C535.735 239.572 510.731 264.576 479.886 264.576Z" fill="black"/>
</g>
<path d="M477.921 255.104H119.914C87.9845 255.104 62.0996 229.22 62.0996 197.29C62.0996 165.361 87.9836 139.477 119.914 139.477H477.921C509.851 139.477 535.735 165.361 535.735 197.29C535.735 229.22 509.851 255.104 477.921 255.104Z" fill="#E02F16"/>
<path d="M132.194 212.634L134.602 207.233C137.597 209.639 142.358 211.351 146.958 211.351C152.788 211.351 155.249 209.265 155.249 206.484C155.249 198.406 132.997 203.702 132.997 189.794C132.997 183.75 137.811 178.615 148.081 178.615C152.574 178.615 157.281 179.792 160.544 181.932L158.352 187.334C154.981 185.355 151.291 184.392 148.028 184.392C142.251 184.392 139.897 186.639 139.897 189.474C139.897 197.443 162.095 192.256 162.095 206.002C162.095 211.993 157.228 217.128 146.958 217.128C141.127 217.128 135.297 215.309 132.194 212.634Z" fill="white"/>
<path d="M196.01 188.029V216.593H189.644V212.956C187.505 215.576 184.135 216.967 180.444 216.967C173.116 216.967 168.142 212.956 168.142 204.344V188.029H174.828V203.435C174.828 208.623 177.288 211.083 181.514 211.083C186.167 211.083 189.323 208.195 189.323 202.472V188.029H196.01Z" fill="white"/>
<path d="M235.113 202.311C235.113 211.19 228.962 216.967 220.618 216.967C216.713 216.967 213.397 215.63 211.15 212.901V216.592H204.785V176.902H211.471V191.506C213.772 188.939 216.981 187.708 220.618 187.708C228.963 187.709 235.113 193.432 235.113 202.311ZM228.32 202.311C228.32 196.854 224.682 193.378 219.869 193.378C215.055 193.378 211.364 196.854 211.364 202.311C211.364 207.766 215.055 211.244 219.869 211.244C224.683 211.244 228.32 207.767 228.32 202.311Z" fill="white"/>
<path d="M238.218 213.758L240.785 208.677C243.299 210.334 247.15 211.511 250.734 211.511C254.96 211.511 256.725 210.334 256.725 208.355C256.725 202.899 239.074 208.035 239.074 196.64C239.074 191.238 243.941 187.708 251.643 187.708C255.441 187.708 259.774 188.617 262.341 190.167L259.774 195.25C257.046 193.645 254.317 193.11 251.59 193.11C247.525 193.11 245.599 194.447 245.599 196.32C245.599 202.097 263.25 196.962 263.25 208.141C263.25 213.49 258.329 216.967 250.307 216.967C245.546 216.967 240.785 215.577 238.218 213.758Z" fill="white"/>
<path d="M266.676 202.311C266.676 193.752 273.095 187.708 282.134 187.708C287.697 187.708 292.137 190.008 294.329 194.341L289.195 197.336C287.483 194.608 284.915 193.378 282.08 193.378C277.159 193.378 273.415 196.802 273.415 202.311C273.415 207.874 277.159 211.244 282.08 211.244C284.915 211.244 287.483 210.014 289.195 207.286L294.329 210.282C292.137 214.56 287.697 216.968 282.134 216.968C273.096 216.967 266.676 210.869 266.676 202.311Z" fill="white"/>
<path d="M316.638 187.709V194.074C316.05 193.967 315.569 193.914 315.086 193.914C310.005 193.914 306.795 196.909 306.795 202.739V216.594H300.108V188.03H306.474V192.203C308.401 189.207 311.878 187.709 316.638 187.709Z" fill="white"/>
<path d="M321.4 179.311C321.4 177.065 323.218 175.3 325.68 175.3C328.14 175.3 329.958 176.958 329.958 179.15C329.958 181.504 328.194 183.322 325.68 183.322C323.219 183.322 321.4 181.558 321.4 179.311ZM322.309 188.029H328.996V216.593H322.309V188.029Z" fill="white"/>
<path d="M368.098 202.311C368.098 211.19 361.946 216.967 353.602 216.967C349.697 216.967 346.382 215.63 344.134 212.901V216.592H337.769V176.902H344.456V191.506C346.756 188.939 349.964 187.708 353.602 187.708C361.946 187.709 368.098 193.432 368.098 202.311ZM361.304 202.311C361.304 196.854 357.667 193.378 352.853 193.378C348.038 193.378 344.348 196.854 344.348 202.311C344.348 207.766 348.038 211.244 352.853 211.244C357.667 211.244 361.304 207.767 361.304 202.311Z" fill="white"/>
<path d="M401.21 204.451H378.798C379.601 208.623 383.078 211.297 388.052 211.297C391.261 211.297 393.775 210.281 395.808 208.195L399.391 212.313C396.824 215.362 392.812 216.967 387.891 216.967C378.316 216.967 372.112 210.815 372.112 202.311C372.112 193.806 378.37 187.708 386.875 187.708C395.219 187.708 401.317 193.539 401.317 202.471C401.317 203.007 401.263 203.809 401.21 204.451ZM378.744 200.011H394.953C394.417 195.892 391.261 193.058 386.875 193.058C382.542 193.058 379.387 195.839 378.744 200.011Z" fill="white"/>
<path d="M406.507 212.796C406.507 210.495 408.326 208.677 410.839 208.677C413.3 208.677 415.065 210.496 415.065 212.796C415.065 215.096 413.3 216.968 410.839 216.968C408.326 216.967 406.507 215.095 406.507 212.796ZM406.882 179.15H414.799L413.461 204.183H408.166L406.882 179.15Z" fill="white"/>
<path d="M469.593 213.711L466.947 210.67C465.443 208.942 464.614 206.728 464.613 204.437L464.61 194.287C464.607 187.572 459.669 182.028 453.229 181.044L453.228 177.103C453.228 176.105 452.419 175.296 451.421 175.296C450.423 175.296 449.615 176.105 449.616 177.104L449.616 180.974C442.947 181.755 437.771 187.418 437.772 194.296L437.776 204.054C437.777 206.181 437.063 208.246 435.751 209.92L432.768 213.724L446.434 213.719C446.997 215.137 448.109 216.342 449.519 216.933C451.503 217.764 453.95 217.343 455.541 215.897C456.196 215.302 456.681 214.543 456.995 213.716L469.593 213.711Z" fill="white"/>
<path d="M290.855 290.387C293.069 294.414 293.472 298.439 293.472 298.439H298.303V298.434L318.58 298.078L318.433 298.439C318.433 298.439 321.737 282.891 322.341 278.26C322.84 274.441 325.198 265.317 322.32 261.291C321.283 259.84 319.379 259.209 317.677 259.742C316.702 260.047 315.716 260.748 315.354 262.289C315.354 262.289 315.109 256.893 311.239 256.812C307.369 256.73 307.233 259.755 307.233 259.755C307.233 259.755 306.17 253.596 301.864 253.65C301.864 253.65 299.214 253.771 298.303 256.647V254.755V244.998C298.303 242.624 296.482 240.551 294.11 240.465C291.652 240.376 289.623 242.324 289.592 244.762L289.245 271.867L282.661 263.426C280.945 261.238 276.839 262.326 276.32 264.205C276.32 264.205 275.133 266.678 277.583 270.326C279.416 273.052 290.855 290.387 290.855 290.387Z" fill="#EBEBEB"/>
<path d="M290.854 290.387C290.854 290.387 290.741 290.244 290.538 289.953C290.329 289.646 290.034 289.215 289.651 288.653C288.87 287.491 287.733 285.8 286.272 283.625C284.807 281.43 283.018 278.749 280.938 275.634C279.898 274.073 278.786 272.403 277.606 270.631C277.013 269.743 276.439 268.766 276.139 267.653C275.826 266.552 275.722 265.324 276.169 264.134L276.159 264.161C276.388 263.437 276.981 262.922 277.617 262.589C278.265 262.259 278.99 262.075 279.736 262.048C280.477 262.022 281.257 262.164 281.934 262.562C282.105 262.656 282.253 262.79 282.412 262.905C282.552 263.043 282.688 263.192 282.819 263.336C283.05 263.632 283.282 263.929 283.516 264.227C285.388 266.62 287.354 269.132 289.399 271.743L289.045 271.863C289.134 264.299 289.231 256.009 289.336 247.193C289.343 246.642 289.349 246.089 289.356 245.533C289.369 244.99 289.339 244.407 289.473 243.824C289.725 242.672 290.446 241.624 291.449 240.975C292.448 240.317 293.717 240.079 294.902 240.34C296.092 240.595 297.146 241.375 297.79 242.41C298.114 242.927 298.339 243.508 298.451 244.112C298.572 244.727 298.525 245.33 298.535 245.907C298.535 247.082 298.536 248.264 298.536 249.452C298.536 251.827 298.537 254.227 298.537 256.647L298.079 256.576C298.393 255.589 299.058 254.561 300.074 253.997C300.481 253.757 300.926 253.589 301.386 253.485C301.605 253.435 301.875 253.399 302.105 253.434C302.339 253.462 302.58 253.446 302.806 253.514C303.736 253.692 304.568 254.221 305.195 254.89C306.448 256.257 307.089 257.981 307.463 259.715L307 259.744C307.109 258.524 307.905 257.442 308.998 256.978C309.533 256.727 310.112 256.639 310.677 256.595C310.961 256.592 311.241 256.562 311.532 256.611L311.964 256.659L312.382 256.784C313.522 257.126 314.314 258.112 314.783 259.097C315.253 260.112 315.498 261.182 315.582 262.279L315.132 262.237C315.364 261.089 316.204 260.033 317.314 259.632C318.399 259.202 319.635 259.243 320.683 259.7C321.205 259.932 321.687 260.254 322.082 260.663C322.492 261.068 322.745 261.575 323.018 262.054C323.487 263.061 323.698 264.136 323.835 265.194C324.223 269.467 323.311 273.523 322.684 277.371C322.141 281.257 321.371 284.953 320.68 288.473C319.95 291.987 319.256 295.328 318.603 298.476L318.274 298.375C318.328 298.246 318.374 298.13 318.421 298.015L318.583 298.252C310.432 298.372 303.619 298.472 298.305 298.549L298.417 298.435V298.441V298.555L298.304 298.554C296.411 298.546 294.863 298.539 293.472 298.533H293.39L293.38 298.45C293.029 295.736 292.297 293.71 291.762 292.384C291.491 291.718 291.255 291.222 291.092 290.893C290.927 290.561 290.854 290.387 290.854 290.387C290.854 290.387 291.266 291.023 291.85 292.345C292.417 293.669 293.18 295.685 293.564 298.43L293.472 298.347C294.863 298.341 296.411 298.335 298.304 298.327L298.19 298.44V298.435V298.323L298.302 298.32C303.614 298.212 310.427 298.073 318.578 297.907L318.838 297.902L318.741 298.143C318.694 298.258 318.648 298.374 318.595 298.504L318.266 298.403C318.908 295.254 319.589 291.912 320.306 288.398C320.986 284.874 321.742 281.19 322.276 277.304C322.899 273.444 323.788 269.405 323.4 265.242C323.266 264.217 323.06 263.185 322.62 262.245C322.363 261.802 322.129 261.33 321.765 260.974C321.41 260.608 320.976 260.319 320.506 260.112C319.563 259.7 318.451 259.667 317.483 260.052C316.502 260.416 315.799 261.297 315.578 262.34L315.25 263.896L315.128 262.298C315.05 261.28 314.809 260.23 314.369 259.294C313.927 258.373 313.223 257.512 312.237 257.222C311.282 256.937 310.129 256.999 309.191 257.401C308.239 257.795 307.564 258.753 307.468 259.763L307.325 261.285L307.006 259.792C306.655 258.152 306.014 256.46 304.857 255.209C303.727 253.956 301.787 253.431 300.312 254.399C299.408 254.903 298.819 255.81 298.528 256.715L298.069 258.138V256.644C298.069 254.224 298.07 251.825 298.07 249.449C298.07 248.261 298.071 247.08 298.071 245.904C298.063 245.309 298.105 244.73 297.997 244.193C297.896 243.646 297.693 243.121 297.399 242.653C296.817 241.714 295.867 241.015 294.804 240.785C293.745 240.551 292.597 240.763 291.699 241.355C290.795 241.939 290.143 242.882 289.915 243.919C289.795 244.431 289.821 244.974 289.807 245.537C289.8 246.092 289.792 246.646 289.785 247.197C289.663 256.013 289.547 264.301 289.443 271.866L289.435 272.43L289.088 271.985C287.053 269.366 285.095 266.848 283.23 264.45C282.742 263.858 282.366 263.195 281.752 262.865C281.149 262.508 280.438 262.372 279.747 262.392C279.055 262.414 278.373 262.586 277.774 262.888C277.181 263.191 276.665 263.662 276.478 264.245L276.477 264.248L276.468 264.272C276.072 265.311 276.14 266.519 276.442 267.564C276.725 268.635 277.272 269.581 277.854 270.461C279.024 272.241 280.126 273.919 281.157 275.487C283.211 278.621 284.979 281.318 286.426 283.525C287.855 285.72 288.967 287.428 289.731 288.601C290.097 289.173 290.378 289.612 290.579 289.924C290.768 290.227 290.854 290.387 290.854 290.387Z" fill="#263238"/>
<path d="M318.85 305.368H293.46C291.53 305.368 289.967 303.804 289.967 301.875V301.63C289.967 299.7 291.531 298.137 293.46 298.137H318.85C320.778 298.137 322.342 299.701 322.342 301.63V301.875C322.342 303.804 320.778 305.368 318.85 305.368Z" fill="#EBEBEB"/>
<path d="M318.85 305.368C318.849 305.342 319.109 305.351 319.578 305.242C320.037 305.125 320.733 304.859 321.343 304.183C321.644 303.849 321.913 303.414 322.075 302.892C322.23 302.376 322.257 301.753 322.171 301.13C322.006 299.889 320.924 298.539 319.32 298.339C312.662 298.347 303.539 298.358 293.462 298.37C292.275 298.364 291.145 299.052 290.598 300.069C290.33 300.578 290.185 301.139 290.199 301.718C290.182 302.306 290.3 302.855 290.554 303.356C291.054 304.359 292.079 305.034 293.15 305.129C294.253 305.163 295.407 305.143 296.492 305.153C300.863 305.172 304.802 305.189 308.128 305.203C311.406 305.234 314.074 305.26 315.973 305.278C316.865 305.297 317.576 305.311 318.106 305.322C318.594 305.336 318.85 305.352 318.85 305.368C318.85 305.384 318.595 305.399 318.107 305.415C317.577 305.425 316.866 305.44 315.974 305.459C314.075 305.477 311.406 305.502 308.129 305.533C304.802 305.548 300.863 305.565 296.493 305.584C295.389 305.579 294.296 305.607 293.109 305.574C291.89 305.47 290.719 304.705 290.147 303.563C289.855 303.003 289.717 302.342 289.736 301.716C289.719 301.082 289.882 300.42 290.19 299.844C290.812 298.683 292.106 297.893 293.463 297.9C303.58 297.918 312.7 297.886 319.367 298.009C321.129 298.255 322.279 299.75 322.431 301.09C322.511 301.768 322.468 302.397 322.289 302.958C322.103 303.511 321.806 303.964 321.478 304.307C320.813 304.998 320.077 305.243 319.599 305.334C319.108 305.415 318.85 305.368 318.85 305.368Z" fill="#263238"/>
<path d="M298.085 266.59C297.955 266.59 297.851 264.241 297.851 261.345C297.851 258.447 297.955 256.099 298.085 256.099C298.214 256.099 298.319 258.447 298.319 261.345C298.319 264.241 298.213 266.59 298.085 266.59Z" fill="#263238"/>
<path d="M307.119 265.876C306.989 265.876 306.885 264.479 306.885 262.758C306.885 261.035 306.989 259.638 307.119 259.638C307.248 259.638 307.353 261.034 307.353 262.758C307.353 264.48 307.248 265.876 307.119 265.876Z" fill="#263238"/>
<path d="M315.355 268.5C315.226 268.5 315.121 267.103 315.121 265.381C315.121 263.659 315.226 262.262 315.355 262.262C315.484 262.262 315.589 263.658 315.589 265.381C315.59 267.103 315.485 268.5 315.355 268.5Z" fill="#263238"/>
<path d="M287.731 240.058C287.673 240.173 285.454 239.159 282.779 237.793C280.101 236.426 277.98 235.225 278.038 235.11C278.097 234.995 280.314 236.009 282.992 237.376C285.668 238.741 287.791 239.943 287.731 240.058Z" fill="#263238"/>
<path d="M292.124 237.583C291.996 237.603 291.41 234.53 290.813 230.72C290.216 226.909 289.836 223.804 289.964 223.784C290.092 223.764 290.679 226.837 291.276 230.648C291.872 234.458 292.252 237.564 292.124 237.583Z" fill="#263238"/>
<path d="M297.59 238.213C297.484 238.139 298.852 236 300.646 233.437C302.441 230.873 303.981 228.855 304.087 228.929C304.193 229.003 302.825 231.141 301.03 233.705C299.236 236.268 297.696 238.287 297.59 238.213Z" fill="#263238"/>
</svg>
