<svg xmlns="http://www.w3.org/2000/svg" width="20" height="19" viewBox="0 0 20 19" fill="none">
<path d="M2.63077 5.82007H0.790771V16.8601C0.790771 17.3481 0.984628 17.8161 1.32969 18.1611C1.67476 18.5062 2.14277 18.7001 2.63077 18.7001H13.6708V16.8601H2.63077V5.82007Z" fill="#CBCBCB"/>
<path d="M17.3507 0.300049H6.3107C5.8227 0.300049 5.35469 0.493905 5.00963 0.838972C4.66456 1.18404 4.4707 1.65205 4.4707 2.14005V13.18C4.4707 13.668 4.66456 14.1361 5.00963 14.4811C5.35469 14.8262 5.8227 15.02 6.3107 15.02H17.3507C17.8387 15.02 18.3067 14.8262 18.6518 14.4811C18.9968 14.1361 19.1907 13.668 19.1907 13.18V2.14005C19.1907 1.65205 18.9968 1.18404 18.6518 0.838972C18.3067 0.493905 17.8387 0.300049 17.3507 0.300049ZM9.0707 11.34V3.98005L15.5107 7.66005L9.0707 11.34Z" fill="#CBCBCB"/>
</svg>